<?xml version="1.0" encoding="UTF-8"?>
<!DOCTYPE svg PUBLIC "-//W3C//DTD SVG 1.1//EN" "http://www.w3.org/Graphics/SVG/1.1/DTD/svg11.dtd">
<svg xmlns="http://www.w3.org/2000/svg" version="1.1" width="1004px" height="650px" style="shape-rendering:geometricPrecision; text-rendering:geometricPrecision; image-rendering:optimizeQuality; fill-rule:evenodd; clip-rule:evenodd" xmlns:xlink="http://www.w3.org/1999/xlink">
<g><path style="opacity:0.975" fill="#ffd708" d="M 455.5,17.5 C 448.833,17.5 442.167,17.5 435.5,17.5C 438.428,16.1803 441.761,15.5136 445.5,15.5C 449.239,15.5136 452.572,16.1803 455.5,17.5 Z"/></g>
<g><path style="opacity:0.652" fill="#ffd812" d="M 566.5,17.5 C 564.833,17.5 563.167,17.5 561.5,17.5C 563.417,15.1493 565.084,15.1493 566.5,17.5 Z"/></g>
<g><path style="opacity:0.975" fill="#ffd81c" d="M 435.5,17.5 C 442.167,17.5 448.833,17.5 455.5,17.5C 455.5,18.1667 455.5,18.8333 455.5,19.5C 448.833,19.5 442.167,19.5 435.5,19.5C 435.5,18.8333 435.5,18.1667 435.5,17.5 Z"/></g>
<g><path style="opacity:0.807" fill="#ffda2f" d="M 561.5,17.5 C 563.167,17.5 564.833,17.5 566.5,17.5C 566.5,18.1667 566.5,18.8333 566.5,19.5C 563.5,19.5 560.5,19.5 557.5,19.5C 558.514,18.3263 559.847,17.6596 561.5,17.5 Z"/></g>
<g><path style="opacity:0.975" fill="#ffd92b" d="M 435.5,19.5 C 442.167,19.5 448.833,19.5 455.5,19.5C 455.5,20.1667 455.5,20.8333 455.5,21.5C 448.833,21.5 442.167,21.5 435.5,21.5C 435.5,20.8333 435.5,20.1667 435.5,19.5 Z"/></g>
<g><path style="opacity:0.885" fill="#ffdb43" d="M 557.5,19.5 C 560.5,19.5 563.5,19.5 566.5,19.5C 566.5,20.1667 566.5,20.8333 566.5,21.5C 562.167,21.5 557.833,21.5 553.5,21.5C 554.514,20.3263 555.847,19.6596 557.5,19.5 Z"/></g>
<g><path style="opacity:0.975" fill="#ffda35" d="M 435.5,21.5 C 442.167,21.5 448.833,21.5 455.5,21.5C 455.5,22.1667 455.5,22.8333 455.5,23.5C 448.833,23.5 442.167,23.5 435.5,23.5C 435.5,22.8333 435.5,22.1667 435.5,21.5 Z"/></g>
<g><path style="opacity:0.912" fill="#ffde55" d="M 553.5,21.5 C 557.833,21.5 562.167,21.5 566.5,21.5C 566.5,22.1667 566.5,22.8333 566.5,23.5C 560.833,23.5 555.167,23.5 549.5,23.5C 550.514,22.3263 551.847,21.6596 553.5,21.5 Z"/></g>
<g><path style="opacity:0.975" fill="#ffdb3d" d="M 435.5,23.5 C 442.167,23.5 448.833,23.5 455.5,23.5C 455.5,24.1667 455.5,24.8333 455.5,25.5C 448.833,25.5 442.167,25.5 435.5,25.5C 435.5,24.8333 435.5,24.1667 435.5,23.5 Z"/></g>
<g><path style="opacity:0.929" fill="#ffe064" d="M 549.5,23.5 C 555.167,23.5 560.833,23.5 566.5,23.5C 566.5,24.1667 566.5,24.8333 566.5,25.5C 559.5,25.5 552.5,25.5 545.5,25.5C 546.514,24.3263 547.847,23.6596 549.5,23.5 Z"/></g>
<g><path style="opacity:0.975" fill="#ffdc47" d="M 435.5,25.5 C 442.167,25.5 448.833,25.5 455.5,25.5C 455.5,26.1667 455.5,26.8333 455.5,27.5C 448.833,27.5 442.167,27.5 435.5,27.5C 435.5,26.8333 435.5,26.1667 435.5,25.5 Z"/></g>
<g><path style="opacity:0.95" fill="#ffe273" d="M 545.5,25.5 C 552.5,25.5 559.5,25.5 566.5,25.5C 566.5,26.1667 566.5,26.8333 566.5,27.5C 558.167,27.5 549.833,27.5 541.5,27.5C 542.514,26.3263 543.847,25.6596 545.5,25.5 Z"/></g>
<g><path style="opacity:0.975" fill="#ffdd50" d="M 435.5,27.5 C 442.167,27.5 448.833,27.5 455.5,27.5C 455.5,28.5 455.5,29.5 455.5,30.5C 448.833,30.5 442.167,30.5 435.5,30.5C 435.5,29.5 435.5,28.5 435.5,27.5 Z"/></g>
<g><path style="opacity:0.957" fill="#ffe581" d="M 541.5,27.5 C 549.833,27.5 558.167,27.5 566.5,27.5C 566.5,28.1667 566.5,28.8333 566.5,29.5C 556.833,29.5 547.167,29.5 537.5,29.5C 538.514,28.3263 539.847,27.6596 541.5,27.5 Z"/></g>
<g><path style="opacity:0.975" fill="#ffdf5c" d="M 435.5,30.5 C 442.167,30.5 448.833,30.5 455.5,30.5C 455.5,31.5 455.5,32.5 455.5,33.5C 448.833,33.5 442.167,33.5 435.5,33.5C 435.5,32.5 435.5,31.5 435.5,30.5 Z"/></g>
<g><path style="opacity:0.962" fill="#ffe78f" d="M 537.5,29.5 C 547.167,29.5 556.833,29.5 566.5,29.5C 566.5,30.1667 566.5,30.8333 566.5,31.5C 555.5,31.5 544.5,31.5 533.5,31.5C 534.514,30.3263 535.847,29.6596 537.5,29.5 Z"/></g>
<g><path style="opacity:0.968" fill="#ffe99b" d="M 533.5,31.5 C 544.5,31.5 555.5,31.5 566.5,31.5C 566.5,32.1667 566.5,32.8333 566.5,33.5C 554.167,33.5 541.833,33.5 529.5,33.5C 530.514,32.3263 531.847,31.6596 533.5,31.5 Z"/></g>
<g><path style="opacity:0.975" fill="#ffe065" d="M 435.5,33.5 C 442.167,33.5 448.833,33.5 455.5,33.5C 455.5,34.1667 455.5,34.8333 455.5,35.5C 448.833,35.5 442.167,35.5 435.5,35.5C 435.5,34.8333 435.5,34.1667 435.5,33.5 Z"/></g>
<g><path style="opacity:0.975" fill="#ffeaa3" d="M 529.5,33.5 C 541.833,33.5 554.167,33.5 566.5,33.5C 566.5,34.5 566.5,35.5 566.5,36.5C 552.167,36.5 537.833,36.5 523.5,36.5C 525.181,34.9925 527.181,33.9925 529.5,33.5 Z"/></g>
<g><path style="opacity:0.975" fill="#ffe16d" d="M 435.5,35.5 C 442.167,35.5 448.833,35.5 455.5,35.5C 455.5,36.1667 455.5,36.8333 455.5,37.5C 448.833,37.5 442.167,37.5 435.5,37.5C 435.5,36.8333 435.5,36.1667 435.5,35.5 Z"/></g>
<g><path style="opacity:0.975" fill="#ffe273" d="M 435.5,37.5 C 442.167,37.5 448.833,37.5 455.5,37.5C 455.5,38.1667 455.5,38.8333 455.5,39.5C 448.833,39.5 442.167,39.5 435.5,39.5C 435.5,38.8333 435.5,38.1667 435.5,37.5 Z"/></g>
<g><path style="opacity:0.965" fill="#ffe995" d="M 523.5,36.5 C 537.833,36.5 552.167,36.5 566.5,36.5C 565.486,37.6737 564.153,38.3404 562.5,38.5C 548.167,38.5 533.833,38.5 519.5,38.5C 520.514,37.3263 521.847,36.6596 523.5,36.5 Z"/></g>
<g><path style="opacity:0.975" fill="#ffe37a" d="M 435.5,39.5 C 442.167,39.5 448.833,39.5 455.5,39.5C 455.5,40.1667 455.5,40.8333 455.5,41.5C 448.833,41.5 442.167,41.5 435.5,41.5C 435.5,40.8333 435.5,40.1667 435.5,39.5 Z"/></g>
<g><path style="opacity:0.943" fill="#ffe789" d="M 519.5,38.5 C 533.833,38.5 548.167,38.5 562.5,38.5C 561.486,39.6737 560.153,40.3404 558.5,40.5C 543.833,40.5 529.167,40.5 514.5,40.5C 515.93,39.4625 517.597,38.7959 519.5,38.5 Z"/></g>
<g><path style="opacity:0.975" fill="#ffe581" d="M 435.5,41.5 C 442.167,41.5 448.833,41.5 455.5,41.5C 455.5,42.1667 455.5,42.8333 455.5,43.5C 448.833,43.5 442.167,43.5 435.5,43.5C 435.5,42.8333 435.5,42.1667 435.5,41.5 Z"/></g>
<g><path style="opacity:0.94" fill="#ffe47e" d="M 514.5,40.5 C 529.167,40.5 543.833,40.5 558.5,40.5C 557.486,41.6737 556.153,42.3404 554.5,42.5C 539.833,42.5 525.167,42.5 510.5,42.5C 511.514,41.3263 512.847,40.6596 514.5,40.5 Z"/></g>
<g><path style="opacity:0.975" fill="#ffe688" d="M 435.5,43.5 C 442.167,43.5 448.833,43.5 455.5,43.5C 455.5,44.5 455.5,45.5 455.5,46.5C 448.833,46.5 442.167,46.5 435.5,46.5C 435.5,45.5 435.5,44.5 435.5,43.5 Z"/></g>
<g><path style="opacity:0.935" fill="#ffe271" d="M 510.5,42.5 C 525.167,42.5 539.833,42.5 554.5,42.5C 553.486,43.6737 552.153,44.3404 550.5,44.5C 535.833,44.5 521.167,44.5 506.5,44.5C 507.514,43.3263 508.847,42.6596 510.5,42.5 Z"/></g>
<g><path style="opacity:0.934" fill="#ffe162" d="M 506.5,44.5 C 521.167,44.5 535.833,44.5 550.5,44.5C 549.22,45.9313 547.553,46.5979 545.5,46.5C 531.167,46.5 516.833,46.5 502.5,46.5C 503.514,45.3263 504.847,44.6596 506.5,44.5 Z"/></g>
<g><path style="opacity:0.975" fill="#ffe791" d="M 435.5,46.5 C 442.167,46.5 448.833,46.5 455.5,46.5C 455.5,47.1667 455.5,47.8333 455.5,48.5C 448.833,48.5 442.167,48.5 435.5,48.5C 435.5,47.8333 435.5,47.1667 435.5,46.5 Z"/></g>
<g><path style="opacity:0.956" fill="#ffde54" d="M 502.5,46.5 C 516.833,46.5 531.167,46.5 545.5,46.5C 544.486,47.6737 543.153,48.3404 541.5,48.5C 527.167,48.5 512.833,48.5 498.5,48.5C 499.514,47.3263 500.847,46.6596 502.5,46.5 Z"/></g>
<g><path style="opacity:0.975" fill="#ffe998" d="M 435.5,48.5 C 442.167,48.5 448.833,48.5 455.5,48.5C 455.5,49.5 455.5,50.5 455.5,51.5C 448.833,51.5 442.167,51.5 435.5,51.5C 435.5,50.5 435.5,49.5 435.5,48.5 Z"/></g>
<g><path style="opacity:0.95" fill="#ffdc44" d="M 498.5,48.5 C 512.833,48.5 527.167,48.5 541.5,48.5C 540.486,49.6737 539.153,50.3404 537.5,50.5C 523.167,50.5 508.833,50.5 494.5,50.5C 495.514,49.3263 496.847,48.6596 498.5,48.5 Z"/></g>
<g><path style="opacity:0.975" fill="#ffeaa0" d="M 435.5,51.5 C 442.167,51.5 448.833,51.5 455.5,51.5C 455.5,52.1667 455.5,52.8333 455.5,53.5C 448.833,53.5 442.167,53.5 435.5,53.5C 435.5,52.8333 435.5,52.1667 435.5,51.5 Z"/></g>
<g><path style="opacity:0.946" fill="#ffda33" d="M 494.5,50.5 C 508.833,50.5 523.167,50.5 537.5,50.5C 536.486,51.6737 535.153,52.3404 533.5,52.5C 519.167,52.5 504.833,52.5 490.5,52.5C 491.514,51.3263 492.847,50.6596 494.5,50.5 Z"/></g>
<g><path style="opacity:0.975" fill="#ffeba5" d="M 435.5,53.5 C 442.167,53.5 448.833,53.5 455.5,53.5C 455.5,54.5 455.5,55.5 455.5,56.5C 448.833,56.5 442.167,56.5 435.5,56.5C 435.5,55.5 435.5,54.5 435.5,53.5 Z"/></g>
<g><path style="opacity:0.947" fill="#ffd91a" d="M 490.5,52.5 C 504.833,52.5 519.167,52.5 533.5,52.5C 532.486,53.6737 531.153,54.3404 529.5,54.5C 515.167,54.5 500.833,54.5 486.5,54.5C 487.514,53.3263 488.847,52.6596 490.5,52.5 Z"/></g>
<g><path style="opacity:0.945" fill="#ffd700" d="M 486.5,54.5 C 500.833,54.5 515.167,54.5 529.5,54.5C 528.486,55.6737 527.153,56.3404 525.5,56.5C 511.167,56.5 496.833,56.5 482.5,56.5C 483.514,55.3263 484.847,54.6596 486.5,54.5 Z"/></g>
<g><path style="opacity:0.975" fill="#ffea9f" d="M 435.5,56.5 C 442.167,56.5 448.833,56.5 455.5,56.5C 455.5,57.5 455.5,58.5 455.5,59.5C 448.833,59.5 442.167,59.5 435.5,59.5C 435.5,58.5 435.5,57.5 435.5,56.5 Z"/></g>
<g><path style="opacity:0.955" fill="#fdd100" d="M 482.5,56.5 C 496.833,56.5 511.167,56.5 525.5,56.5C 523.351,57.7362 521.018,58.7362 518.5,59.5C 504.5,59.5 490.5,59.5 476.5,59.5C 478.181,57.9925 480.181,56.9925 482.5,56.5 Z"/></g>
<g><path style="opacity:0.975" fill="#ffe998" d="M 435.5,59.5 C 442.167,59.5 448.833,59.5 455.5,59.5C 455.5,60.1667 455.5,60.8333 455.5,61.5C 448.833,61.5 442.167,61.5 435.5,61.5C 435.5,60.8333 435.5,60.1667 435.5,59.5 Z"/></g>
<g><path style="opacity:0.958" fill="#faca04" d="M 476.5,59.5 C 490.5,59.5 504.5,59.5 518.5,59.5C 516.819,61.0075 514.819,62.0075 512.5,62.5C 498.5,62.5 484.5,62.5 470.5,62.5C 472.181,60.9925 474.181,59.9925 476.5,59.5 Z"/></g>
<g><path style="opacity:0.975" fill="#ffe892" d="M 435.5,61.5 C 442.167,61.5 448.833,61.5 455.5,61.5C 455.5,62.5 455.5,63.5 455.5,64.5C 448.833,64.5 442.167,64.5 435.5,64.5C 435.5,63.5 435.5,62.5 435.5,61.5 Z"/></g>
<g><path style="opacity:0.955" fill="#f8c309" d="M 470.5,62.5 C 484.5,62.5 498.5,62.5 512.5,62.5C 511.486,63.6737 510.153,64.3404 508.5,64.5C 494.5,64.5 480.5,64.5 466.5,64.5C 467.514,63.3263 468.847,62.6596 470.5,62.5 Z"/></g>
<g><path style="opacity:0.954" fill="#f6bf09" d="M 466.5,64.5 C 480.5,64.5 494.5,64.5 508.5,64.5C 506.819,66.0075 504.819,67.0075 502.5,67.5C 489.167,67.5 475.833,67.5 462.5,67.5C 463.035,65.5544 464.368,64.5544 466.5,64.5 Z"/></g>
<g><path style="opacity:0.975" fill="#ffe78b" d="M 435.5,64.5 C 442.167,64.5 448.833,64.5 455.5,64.5C 455.5,65.1667 455.5,65.8333 455.5,66.5C 448.833,66.5 442.167,66.5 435.5,66.5C 435.5,65.8333 435.5,65.1667 435.5,64.5 Z"/></g>
<g><path style="opacity:0.975" fill="#ffe685" d="M 435.5,66.5 C 442.167,66.5 448.833,66.5 455.5,66.5C 455.5,67.1667 455.5,67.8333 455.5,68.5C 448.833,68.5 442.167,68.5 435.5,68.5C 435.5,67.8333 435.5,67.1667 435.5,66.5 Z"/></g>
<g><path style="opacity:0.626" fill="#ffd805" d="M 566.5,68.5 C 565.167,68.5 563.833,68.5 562.5,68.5C 563.261,67.6091 564.261,66.9424 565.5,66.5C 566.298,66.9569 566.631,67.6236 566.5,68.5 Z"/></g>
<g><path style="opacity:0.975" fill="#ffe580" d="M 435.5,68.5 C 442.167,68.5 448.833,68.5 455.5,68.5C 455.5,69.1667 455.5,69.8333 455.5,70.5C 448.833,70.5 442.167,70.5 435.5,70.5C 435.5,69.8333 435.5,69.1667 435.5,68.5 Z"/></g>
<g><path style="opacity:0.973" fill="#f4b90c" d="M 462.5,67.5 C 475.833,67.5 489.167,67.5 502.5,67.5C 500.351,68.7362 498.018,69.7362 495.5,70.5C 484.5,70.5 473.5,70.5 462.5,70.5C 462.5,69.5 462.5,68.5 462.5,67.5 Z"/></g>
<g><path style="opacity:0.845" fill="#ffd820" d="M 562.5,68.5 C 563.833,68.5 565.167,68.5 566.5,68.5C 566.5,69.1667 566.5,69.8333 566.5,70.5C 563.833,70.5 561.167,70.5 558.5,70.5C 559.514,69.3263 560.847,68.6596 562.5,68.5 Z"/></g>
<g><path style="opacity:0.975" fill="#ffe37a" d="M 435.5,70.5 C 442.167,70.5 448.833,70.5 455.5,70.5C 455.5,71.1667 455.5,71.8333 455.5,72.5C 448.833,72.5 442.167,72.5 435.5,72.5C 435.5,71.8333 435.5,71.1667 435.5,70.5 Z"/></g>
<g><path style="opacity:0.966" fill="#f1b210" d="M 462.5,70.5 C 473.5,70.5 484.5,70.5 495.5,70.5C 495.389,71.1174 495.056,71.6174 494.5,72C 496.066,72.6082 497.4,73.4415 498.5,74.5C 486.5,74.5 474.5,74.5 462.5,74.5C 462.5,73.1667 462.5,71.8333 462.5,70.5 Z"/></g>
<g><path style="opacity:0.896" fill="#ffda31" d="M 558.5,70.5 C 561.167,70.5 563.833,70.5 566.5,70.5C 566.5,71.1667 566.5,71.8333 566.5,72.5C 562.5,72.5 558.5,72.5 554.5,72.5C 555.514,71.3263 556.847,70.6596 558.5,70.5 Z"/></g>
<g><path style="opacity:0.975" fill="#ffe273" d="M 435.5,72.5 C 442.167,72.5 448.833,72.5 455.5,72.5C 455.5,73.1667 455.5,73.8333 455.5,74.5C 448.833,74.5 442.167,74.5 435.5,74.5C 435.5,73.8333 435.5,73.1667 435.5,72.5 Z"/></g>
<g><path style="opacity:0.922" fill="#ffdb3f" d="M 554.5,72.5 C 558.5,72.5 562.5,72.5 566.5,72.5C 566.5,73.1667 566.5,73.8333 566.5,74.5C 561.167,74.5 555.833,74.5 550.5,74.5C 551.514,73.3263 552.847,72.6596 554.5,72.5 Z"/></g>
<g><path style="opacity:0.975" fill="#ffe26d" d="M 435.5,74.5 C 442.167,74.5 448.833,74.5 455.5,74.5C 455.5,75.1667 455.5,75.8333 455.5,76.5C 448.833,76.5 442.167,76.5 435.5,76.5C 435.5,75.8333 435.5,75.1667 435.5,74.5 Z"/></g>
<g><path style="opacity:0.954" fill="#f0ac12" d="M 462.5,74.5 C 474.5,74.5 486.5,74.5 498.5,74.5C 500.553,74.4021 502.22,75.0687 503.5,76.5C 489.833,76.5 476.167,76.5 462.5,76.5C 462.5,75.8333 462.5,75.1667 462.5,74.5 Z"/></g>
<g><path style="opacity:0.938" fill="#ffdc4c" d="M 550.5,74.5 C 555.833,74.5 561.167,74.5 566.5,74.5C 566.5,75.1667 566.5,75.8333 566.5,76.5C 559.833,76.5 553.167,76.5 546.5,76.5C 547.514,75.3263 548.847,74.6596 550.5,74.5 Z"/></g>
<g><path style="opacity:0.975" fill="#ffe166" d="M 435.5,76.5 C 442.167,76.5 448.833,76.5 455.5,76.5C 455.5,77.1667 455.5,77.8333 455.5,78.5C 448.833,78.5 442.167,78.5 435.5,78.5C 435.5,77.8333 435.5,77.1667 435.5,76.5 Z"/></g>
<g><path style="opacity:0.958" fill="#efa913" d="M 462.5,76.5 C 476.167,76.5 489.833,76.5 503.5,76.5C 505.153,76.6596 506.486,77.3263 507.5,78.5C 493.167,78.5 478.833,78.5 464.5,78.5C 463.167,78.5 462.5,77.8333 462.5,76.5 Z"/></g>
<g><path style="opacity:0.959" fill="#ffdf59" d="M 546.5,76.5 C 553.167,76.5 559.833,76.5 566.5,76.5C 566.5,77.5 566.5,78.5 566.5,79.5C 557.833,79.5 549.167,79.5 540.5,79.5C 542.181,77.9925 544.181,76.9925 546.5,76.5 Z"/></g>
<g><path style="opacity:0.975" fill="#ffe05f" d="M 435.5,78.5 C 442.167,78.5 448.833,78.5 455.5,78.5C 455.5,79.1667 455.5,79.8333 455.5,80.5C 448.833,80.5 442.167,80.5 435.5,80.5C 435.5,79.8333 435.5,79.1667 435.5,78.5 Z"/></g>
<g><path style="opacity:0.959" fill="#eda412" d="M 464.5,78.5 C 478.833,78.5 493.167,78.5 507.5,78.5C 510.686,79.5969 513.686,80.9303 516.5,82.5C 501.833,82.5 487.167,82.5 472.5,82.5C 469.515,81.6743 466.849,80.341 464.5,78.5 Z"/></g>
<g><path style="opacity:0.966" fill="#ffe167" d="M 540.5,79.5 C 549.167,79.5 557.833,79.5 566.5,79.5C 566.5,80.1667 566.5,80.8333 566.5,81.5C 556.5,81.5 546.5,81.5 536.5,81.5C 537.514,80.3263 538.847,79.6596 540.5,79.5 Z"/></g>
<g><path style="opacity:0.975" fill="#ffdf5a" d="M 435.5,80.5 C 442.167,80.5 448.833,80.5 455.5,80.5C 455.5,81.1667 455.5,81.8333 455.5,82.5C 448.833,82.5 442.167,82.5 435.5,82.5C 435.5,81.8333 435.5,81.1667 435.5,80.5 Z"/></g>
<g><path style="opacity:0.935" fill="#eb9f13" d="M 472.5,82.5 C 487.167,82.5 501.833,82.5 516.5,82.5C 514.421,84.873 511.754,86.2064 508.5,86.5C 499.167,86.5 489.833,86.5 480.5,86.5C 477.515,85.6743 474.849,84.341 472.5,82.5 Z"/></g>
<g><path style="opacity:0.971" fill="#ffe374" d="M 536.5,81.5 C 546.5,81.5 556.5,81.5 566.5,81.5C 566.5,82.5 566.5,83.5 566.5,84.5C 554.167,84.5 541.833,84.5 529.5,84.5C 531.649,83.2638 533.982,82.2638 536.5,81.5 Z"/></g>
<g><path style="opacity:0.975" fill="#ffdd50" d="M 435.5,82.5 C 442.167,82.5 448.833,82.5 455.5,82.5C 455.5,83.5 455.5,84.5 455.5,85.5C 448.833,85.5 442.167,85.5 435.5,85.5C 435.5,84.5 435.5,83.5 435.5,82.5 Z"/></g>
<g><path style="opacity:0.956" fill="#ffe580" d="M 529.5,84.5 C 541.833,84.5 554.167,84.5 566.5,84.5C 566.5,85.1667 566.5,85.8333 566.5,86.5C 552.833,86.5 539.167,86.5 525.5,86.5C 526.514,85.3263 527.847,84.6596 529.5,84.5 Z"/></g>
<g><path style="opacity:0.975" fill="#ffdc46" d="M 435.5,85.5 C 442.167,85.5 448.833,85.5 455.5,85.5C 455.5,86.5 455.5,87.5 455.5,88.5C 448.833,88.5 442.167,88.5 435.5,88.5C 435.5,87.5 435.5,86.5 435.5,85.5 Z"/></g>
<g><path style="opacity:0.849" fill="#ea9b14" d="M 480.5,86.5 C 489.833,86.5 499.167,86.5 508.5,86.5C 504.281,89.1941 499.781,91.5274 495,93.5C 489.77,91.8004 484.937,89.4671 480.5,86.5 Z"/></g>
<g><path style="opacity:0.959" fill="#ffe68a" d="M 525.5,86.5 C 539.167,86.5 552.833,86.5 566.5,86.5C 566.672,87.4916 566.338,88.1583 565.5,88.5C 550.833,88.5 536.167,88.5 521.5,88.5C 522.514,87.3263 523.847,86.6596 525.5,86.5 Z"/></g>
<g><path style="opacity:0.975" fill="#ffdb3c" d="M 435.5,88.5 C 442.167,88.5 448.833,88.5 455.5,88.5C 455.5,89.1667 455.5,89.8333 455.5,90.5C 448.833,90.5 442.167,90.5 435.5,90.5C 435.5,89.8333 435.5,89.1667 435.5,88.5 Z"/></g>
<g><path style="opacity:0.945" fill="#ffe893" d="M 521.5,88.5 C 536.167,88.5 550.833,88.5 565.5,88.5C 564.486,89.6737 563.153,90.3404 561.5,90.5C 546.833,90.5 532.167,90.5 517.5,90.5C 518.514,89.3263 519.847,88.6596 521.5,88.5 Z"/></g>
<g><path style="opacity:0.975" fill="#ffda31" d="M 435.5,90.5 C 442.167,90.5 448.833,90.5 455.5,90.5C 455.5,91.1667 455.5,91.8333 455.5,92.5C 448.833,92.5 442.167,92.5 435.5,92.5C 435.5,91.8333 435.5,91.1667 435.5,90.5 Z"/></g>
<g><path style="opacity:0.944" fill="#ffea9d" d="M 517.5,90.5 C 532.167,90.5 546.833,90.5 561.5,90.5C 559.819,92.0075 557.819,93.0075 555.5,93.5C 540.833,93.5 526.167,93.5 511.5,93.5C 513.181,91.9925 515.181,90.9925 517.5,90.5 Z"/></g>
<g><path style="opacity:0.975" fill="#ffd927" d="M 435.5,92.5 C 442.167,92.5 448.833,92.5 455.5,92.5C 455.5,93.1667 455.5,93.8333 455.5,94.5C 448.833,94.5 442.167,94.5 435.5,94.5C 435.5,93.8333 435.5,93.1667 435.5,92.5 Z"/></g>
<g><path style="opacity:0.94" fill="#ffeba5" d="M 511.5,93.5 C 526.167,93.5 540.833,93.5 555.5,93.5C 554.486,94.6737 553.153,95.3404 551.5,95.5C 536.833,95.5 522.167,95.5 507.5,95.5C 508.514,94.3263 509.847,93.6596 511.5,93.5 Z"/></g>
<g><path style="opacity:0.975" fill="#ffd81c" d="M 435.5,94.5 C 442.167,94.5 448.833,94.5 455.5,94.5C 455.5,95.1667 455.5,95.8333 455.5,96.5C 448.833,96.5 442.167,96.5 435.5,96.5C 435.5,95.8333 435.5,95.1667 435.5,94.5 Z"/></g>
<g><path style="opacity:0.946" fill="#ffea9f" d="M 507.5,95.5 C 522.167,95.5 536.833,95.5 551.5,95.5C 550.07,96.5375 548.403,97.2041 546.5,97.5C 532.167,97.5 517.833,97.5 503.5,97.5C 504.514,96.3263 505.847,95.6596 507.5,95.5 Z"/></g>
<g><path style="opacity:0.975" fill="#fed603" d="M 435.5,96.5 C 442.167,96.5 448.833,96.5 455.5,96.5C 455.5,98.1667 455.5,99.8333 455.5,101.5C 448.833,101.5 442.167,101.5 435.5,101.5C 435.5,99.8333 435.5,98.1667 435.5,96.5 Z"/></g>
<g><path style="opacity:0.957" fill="#ffe897" d="M 503.5,97.5 C 517.833,97.5 532.167,97.5 546.5,97.5C 545.486,98.6737 544.153,99.3404 542.5,99.5C 528.167,99.5 513.833,99.5 499.5,99.5C 500.514,98.3263 501.847,97.6596 503.5,97.5 Z"/></g>
<g><path style="opacity:0.956" fill="#ffe78e" d="M 499.5,99.5 C 513.833,99.5 528.167,99.5 542.5,99.5C 541.486,100.674 540.153,101.34 538.5,101.5C 524.167,101.5 509.833,101.5 495.5,101.5C 496.514,100.326 497.847,99.6596 499.5,99.5 Z"/></g>
<g><path style="opacity:0.975" fill="#fcd100" d="M 435.5,101.5 C 442.167,101.5 448.833,101.5 455.5,101.5C 455.5,103.5 455.5,105.5 455.5,107.5C 448.833,107.5 442.167,107.5 435.5,107.5C 435.5,105.5 435.5,103.5 435.5,101.5 Z"/></g>
<g><path style="opacity:0.95" fill="#ffe685" d="M 495.5,101.5 C 509.833,101.5 524.167,101.5 538.5,101.5C 536.819,103.008 534.819,104.008 532.5,104.5C 518.167,104.5 503.833,104.5 489.5,104.5C 491.181,102.992 493.181,101.992 495.5,101.5 Z"/></g>
<g><path style="opacity:0.948" fill="#ffe37a" d="M 489.5,104.5 C 503.833,104.5 518.167,104.5 532.5,104.5C 531.486,105.674 530.153,106.34 528.5,106.5C 514.167,106.5 499.833,106.5 485.5,106.5C 486.514,105.326 487.847,104.66 489.5,104.5 Z"/></g>
<g><path style="opacity:0.975" fill="#facb04" d="M 435.5,107.5 C 442.167,107.5 448.833,107.5 455.5,107.5C 455.5,109.167 455.5,110.833 455.5,112.5C 448.833,112.5 442.167,112.5 435.5,112.5C 435.5,110.833 435.5,109.167 435.5,107.5 Z"/></g>
<g><path style="opacity:0.966" fill="#ffe270" d="M 485.5,106.5 C 499.833,106.5 514.167,106.5 528.5,106.5C 527.07,107.537 525.403,108.204 523.5,108.5C 509.5,108.5 495.5,108.5 481.5,108.5C 482.514,107.326 483.847,106.66 485.5,106.5 Z"/></g>
<g><path style="opacity:0.965" fill="#ffe168" d="M 481.5,108.5 C 495.5,108.5 509.5,108.5 523.5,108.5C 522.486,109.674 521.153,110.34 519.5,110.5C 505.5,110.5 491.5,110.5 477.5,110.5C 478.514,109.326 479.847,108.66 481.5,108.5 Z"/></g>
<g><path style="opacity:0.96" fill="#ffe05d" d="M 477.5,110.5 C 491.5,110.5 505.5,110.5 519.5,110.5C 518.486,111.674 517.153,112.34 515.5,112.5C 501.5,112.5 487.5,112.5 473.5,112.5C 474.514,111.326 475.847,110.66 477.5,110.5 Z"/></g>
<g><path style="opacity:0.941" fill="#ffde54" d="M 473.5,112.5 C 487.5,112.5 501.5,112.5 515.5,112.5C 514.486,113.674 513.153,114.34 511.5,114.5C 497.167,114.5 482.833,114.5 468.5,114.5C 469.78,113.069 471.447,112.402 473.5,112.5 Z"/></g>
<g><path style="opacity:0.975" fill="#fac706" d="M 435.5,112.5 C 442.167,112.5 448.833,112.5 455.5,112.5C 455.5,113.167 455.5,113.833 455.5,114.5C 448.833,114.5 442.167,114.5 435.5,114.5C 435.5,113.833 435.5,113.167 435.5,112.5 Z"/></g>
<g><path style="opacity:0.975" fill="#f8c409" d="M 435.5,114.5 C 442.167,114.5 448.833,114.5 455.5,114.5C 455.5,116.167 455.5,117.833 455.5,119.5C 448.833,119.5 442.167,119.5 435.5,119.5C 435.5,117.833 435.5,116.167 435.5,114.5 Z"/></g>
<g><path style="opacity:0.938" fill="#ffdc48" d="M 468.5,114.5 C 482.833,114.5 497.167,114.5 511.5,114.5C 510.486,115.674 509.153,116.34 507.5,116.5C 493.167,116.5 478.833,116.5 464.5,116.5C 465.514,115.326 466.847,114.66 468.5,114.5 Z"/></g>
<g><path style="opacity:0.964" fill="#ffdb3d" d="M 464.5,116.5 C 478.833,116.5 493.167,116.5 507.5,116.5C 506.486,117.674 505.153,118.34 503.5,118.5C 489.833,118.5 476.167,118.5 462.5,118.5C 462.5,117.167 463.167,116.5 464.5,116.5 Z"/></g>
<g><path style="opacity:0.975" fill="#f5be0a" d="M 435.5,119.5 C 442.167,119.5 448.833,119.5 455.5,119.5C 455.5,121.5 455.5,123.5 455.5,125.5C 448.833,125.5 442.167,125.5 435.5,125.5C 435.5,123.5 435.5,121.5 435.5,119.5 Z"/></g>
<g><path style="opacity:0.98" fill="#ffda2f" d="M 462.5,118.5 C 476.167,118.5 489.833,118.5 503.5,118.5C 502.07,119.537 500.403,120.204 498.5,120.5C 486.5,120.5 474.5,120.5 462.5,120.5C 462.5,119.833 462.5,119.167 462.5,118.5 Z"/></g>
<g><path style="opacity:0.974" fill="#ffd91f" d="M 462.5,120.5 C 474.5,120.5 486.5,120.5 498.5,120.5C 497.486,121.674 496.153,122.34 494.5,122.5C 483.833,122.5 473.167,122.5 462.5,122.5C 462.5,121.833 462.5,121.167 462.5,120.5 Z"/></g>
<g><path style="opacity:0.972" fill="#fed603" d="M 462.5,122.5 C 473.167,122.5 483.833,122.5 494.5,122.5C 495.984,124.074 497.651,125.407 499.5,126.5C 487.167,126.5 474.833,126.5 462.5,126.5C 462.5,125.167 462.5,123.833 462.5,122.5 Z"/></g>
<g><path style="opacity:0.975" fill="#f4b90d" d="M 435.5,125.5 C 442.167,125.5 448.833,125.5 455.5,125.5C 455.5,126.833 455.5,128.167 455.5,129.5C 448.833,129.5 442.167,129.5 435.5,129.5C 435.5,128.167 435.5,126.833 435.5,125.5 Z"/></g>
<g><path style="opacity:0.98" fill="#fcd100" d="M 462.5,126.5 C 474.833,126.5 487.167,126.5 499.5,126.5C 501.819,126.992 503.819,127.992 505.5,129.5C 491.5,129.5 477.5,129.5 463.5,129.5C 462.596,128.791 462.263,127.791 462.5,126.5 Z"/></g>
<g><path style="opacity:0.975" fill="#f3b60e" d="M 435.5,129.5 C 442.167,129.5 448.833,129.5 455.5,129.5C 455.5,130.167 455.5,130.833 455.5,131.5C 448.833,131.5 442.167,131.5 435.5,131.5C 435.5,130.833 435.5,130.167 435.5,129.5 Z"/></g>
<g><path style="opacity:0.954" fill="#facb03" d="M 463.5,129.5 C 477.5,129.5 491.5,129.5 505.5,129.5C 508.912,130.075 511.912,131.408 514.5,133.5C 500.167,133.5 485.833,133.5 471.5,133.5C 468.515,132.674 465.849,131.341 463.5,129.5 Z"/></g>
<g><path style="opacity:0.975" fill="#f2b210" d="M 435.5,131.5 C 442.167,131.5 448.833,131.5 455.5,131.5C 455.5,134.167 455.5,136.833 455.5,139.5C 448.833,139.5 442.167,139.5 435.5,139.5C 435.5,136.833 435.5,134.167 435.5,131.5 Z"/></g>
<g><path style="opacity:0.951" fill="#f8c509" d="M 471.5,133.5 C 485.833,133.5 500.167,133.5 514.5,133.5C 518.151,134.659 521.485,136.326 524.5,138.5C 510.167,138.5 495.833,138.5 481.5,138.5C 477.849,137.341 474.515,135.674 471.5,133.5 Z"/></g>
<g><path style="opacity:0.951" fill="#f5be0a" d="M 481.5,138.5 C 495.833,138.5 510.167,138.5 524.5,138.5C 527.485,139.326 530.151,140.659 532.5,142.5C 518.167,142.5 503.833,142.5 489.5,142.5C 486.515,141.674 483.849,140.341 481.5,138.5 Z"/></g>
<g><path style="opacity:0.975" fill="#f0ac12" d="M 435.5,139.5 C 442.167,139.5 448.833,139.5 455.5,139.5C 455.5,140.833 455.5,142.167 455.5,143.5C 448.833,143.5 442.167,143.5 435.5,143.5C 435.5,142.167 435.5,140.833 435.5,139.5 Z"/></g>
<g><path style="opacity:0.975" fill="#efaa13" d="M 435.5,143.5 C 442.167,143.5 448.833,143.5 455.5,143.5C 455.5,145.167 455.5,146.833 455.5,148.5C 448.833,148.5 442.167,148.5 435.5,148.5C 435.5,146.833 435.5,145.167 435.5,143.5 Z"/></g>
<g><path style="opacity:0.95" fill="#f3b80d" d="M 489.5,142.5 C 503.833,142.5 518.167,142.5 532.5,142.5C 535.686,143.597 538.686,144.93 541.5,146.5C 526.833,146.5 512.167,146.5 497.5,146.5C 494.515,145.674 491.849,144.341 489.5,142.5 Z"/></g>
<g><path style="opacity:0.95" fill="#f1b210" d="M 497.5,146.5 C 512.167,146.5 526.833,146.5 541.5,146.5C 545.818,147.992 549.818,149.992 553.5,152.5C 539.167,152.5 524.833,152.5 510.5,152.5C 505.978,150.736 501.645,148.736 497.5,146.5 Z"/></g>
<g><path style="opacity:0.975" fill="#eda511" d="M 435.5,148.5 C 442.167,148.5 448.833,148.5 455.5,148.5C 455.5,150.5 455.5,152.5 455.5,154.5C 448.833,154.5 442.167,154.5 435.5,154.5C 435.5,152.5 435.5,150.5 435.5,148.5 Z"/></g>
<g><path style="opacity:0.955" fill="#f0ac12" d="M 510.5,152.5 C 524.833,152.5 539.167,152.5 553.5,152.5C 555.819,152.992 557.819,153.992 559.5,155.5C 545.167,155.5 530.833,155.5 516.5,155.5C 514.181,155.008 512.181,154.008 510.5,152.5 Z"/></g>
<g><path style="opacity:0.975" fill="#eca312" d="M 435.5,154.5 C 442.167,154.5 448.833,154.5 455.5,154.5C 455.5,155.167 455.5,155.833 455.5,156.5C 448.833,156.5 442.167,156.5 435.5,156.5C 435.5,155.833 435.5,155.167 435.5,154.5 Z"/></g>
<g><path style="opacity:0.956" fill="#efa912" d="M 516.5,155.5 C 530.833,155.5 545.167,155.5 559.5,155.5C 561.819,155.992 563.819,156.992 565.5,158.5C 551.167,158.5 536.833,158.5 522.5,158.5C 520.181,158.008 518.181,157.008 516.5,155.5 Z"/></g>
<g><path style="opacity:0.975" fill="#eb9f13" d="M 435.5,156.5 C 442.167,156.5 448.833,156.5 455.5,156.5C 455.5,159.833 455.5,163.167 455.5,166.5C 448.833,166.5 442.167,166.5 435.5,166.5C 435.5,163.167 435.5,159.833 435.5,156.5 Z"/></g>
<g><path style="opacity:0.96" fill="#eda512" d="M 522.5,158.5 C 536.833,158.5 551.167,158.5 565.5,158.5C 566.434,159.568 566.768,160.901 566.5,162.5C 554.5,162.5 542.5,162.5 530.5,162.5C 527.515,161.674 524.849,160.341 522.5,158.5 Z"/></g>
<g><path style="opacity:0.951" fill="#eba013" d="M 530.5,162.5 C 542.5,162.5 554.5,162.5 566.5,162.5C 566.5,165.167 566.5,167.833 566.5,170.5C 560.167,170.5 553.833,170.5 547.5,170.5C 541.584,168.203 535.918,165.537 530.5,162.5 Z"/></g>
<g><path style="opacity:0.975" fill="#ea9a14" d="M 435.5,166.5 C 442.167,166.5 448.833,166.5 455.5,166.5C 455.5,170.833 455.5,175.167 455.5,179.5C 448.833,179.5 442.167,179.5 435.5,179.5C 435.5,175.167 435.5,170.833 435.5,166.5 Z"/></g>
<g><path style="opacity:0.876" fill="#ea9b14" d="M 547.5,170.5 C 553.833,170.5 560.167,170.5 566.5,170.5C 566.5,173.5 566.5,176.5 566.5,179.5C 559.745,177.288 553.412,174.288 547.5,170.5 Z"/></g>
<g><path style="opacity:0.975" fill="#000000" d="M 35.5,297.5 C 48.5043,297.333 61.5043,297.5 74.5,298C 75,298.5 75.5,299 76,299.5C 77.3036,323.104 77.9703,346.77 78,370.5C 97.8105,346.388 117.977,322.555 138.5,299C 156.073,297.527 173.739,297.027 191.5,297.5C 191.856,300.564 191.023,303.231 189,305.5C 151.959,348.206 115.292,391.206 79,434.5C 77.6968,457.77 77.0302,481.104 77,504.5C 76.7265,506.329 75.8932,507.829 74.5,509C 61.5,509.667 48.5,509.667 35.5,509C 34.6667,508.167 33.8333,507.333 33,506.5C 32.3333,437.833 32.3333,369.167 33,300.5C 34.045,299.627 34.8783,298.627 35.5,297.5 Z"/></g>
<g><path style="opacity:0.977" fill="#000000" d="M 240.5,297.5 C 267.876,297.044 295.209,297.544 322.5,299C 349.234,306.067 366.401,322.901 374,349.5C 379.137,378.102 370.47,401.436 348,419.5C 347.833,420.333 347.667,421.167 347.5,422C 358.914,448.997 370.748,475.831 383,502.5C 383.758,504.769 383.591,506.936 382.5,509C 371.167,509.667 359.833,509.667 348.5,509C 346.951,507.786 345.785,506.286 345,504.5C 334.667,481.167 324.333,457.833 314,434.5C 313.25,433.874 312.416,433.374 311.5,433C 300.167,432.333 288.833,432.333 277.5,433C 275.667,433.5 274.5,434.667 274,436.5C 273.667,460.167 273.333,483.833 273,507.5C 272.5,508 272,508.5 271.5,509C 261.167,509.667 250.833,509.667 240.5,509C 240,508.5 239.5,508 239,507.5C 237.845,488.754 237.345,469.921 237.5,451C 237.345,432.079 237.845,413.246 239,394.5C 239.5,394 240,393.5 240.5,393C 265.541,392.952 290.541,392.285 315.5,391C 334.262,382.049 339.095,368.215 330,349.5C 325.15,343.494 318.983,339.661 311.5,338C 300.5,337.333 289.5,337.333 278.5,338C 276.274,339.227 274.774,341.061 274,343.5C 276.161,357.67 270.161,363.337 256,360.5C 251.056,360.612 246.223,360.112 241.5,359C 239.513,357.681 238.346,355.848 238,353.5C 237.333,336.167 237.333,318.833 238,301.5C 238.662,300.016 239.496,298.683 240.5,297.5 Z"/></g>
<g><path style="opacity:0.98" fill="#000000" d="M 448.5,297.5 C 472.169,297.333 495.836,297.5 519.5,298C 520.5,298.833 521.5,299.667 522.5,300.5C 541.154,367.45 559.654,434.45 578,501.5C 578.769,504.099 578.602,506.599 577.5,509C 565.167,509.667 552.833,509.667 540.5,509C 539.584,508.626 538.75,508.126 538,507.5C 532.358,488.266 527.025,468.933 522,449.5C 521.167,446 519,443.833 515.5,443C 498.833,442.667 482.167,442.333 465.5,442C 465,441.5 464.5,441 464,440.5C 463.333,430.833 463.333,421.167 464,411.5C 464.5,411 465,410.5 465.5,410C 478.833,409.667 492.167,409.333 505.5,409C 507.736,408.266 509.069,406.766 509.5,404.5C 503.667,383.167 497.833,361.833 492,340.5C 487.15,335.573 481.983,335.24 476.5,339.5C 472.125,354.79 467.458,369.957 462.5,385C 451.649,384.291 440.982,382.291 430.5,379C 425.782,377.551 424.282,374.385 426,369.5C 432.178,346.456 438.511,323.456 445,300.5C 446.145,299.364 447.312,298.364 448.5,297.5 Z"/></g>
<g><path style="opacity:0.97" fill="#000000" d="M 595.5,297.5 C 653.834,297.333 712.168,297.5 770.5,298C 771.416,298.374 772.25,298.874 773,299.5C 773.667,310.5 773.667,321.5 773,332.5C 772.097,333.701 770.931,334.535 769.5,335C 712.167,335.667 654.833,335.667 597.5,335C 595.714,334.215 594.214,333.049 593,331.5C 592.333,321.5 592.333,311.5 593,301.5C 593.662,300.016 594.496,298.683 595.5,297.5 Z"/></g>
<g><path style="opacity:0.983" fill="#000000" d="M 832.5,297.5 C 877.501,297.333 922.501,297.5 967.5,298C 968.667,298.5 969.5,299.333 970,300.5C 970.667,311.167 970.667,321.833 970,332.5C 969.626,333.416 969.126,334.25 968.5,335C 948.167,335.333 927.833,335.667 907.5,336C 905.333,336.833 903.833,338.333 903,340.5C 902.667,396.167 902.333,451.833 902,507.5C 901.5,508 901,508.5 900.5,509C 886.788,509.815 873.121,509.648 859.5,508.5C 858.667,452.836 858.167,397.17 858,341.5C 857.602,338.768 856.102,336.935 853.5,336C 845.921,335.816 838.421,335.316 831,334.5C 829.378,323.264 829.045,311.931 830,300.5C 831.045,299.627 831.878,298.627 832.5,297.5 Z"/></g>
<g><path style="opacity:0.974" fill="#000000" d="M 666.5,385.5 C 691.836,385.333 717.169,385.5 742.5,386C 744.333,386.5 745.5,387.667 746,389.5C 746.667,400.167 746.667,410.833 746,421.5C 745.417,423.002 744.584,424.335 743.5,425.5C 731.546,426.313 719.546,426.813 707.5,427C 706.333,427.5 705.5,428.333 705,429.5C 704.667,455.167 704.333,480.833 704,506.5C 703.167,507.333 702.333,508.167 701.5,509C 689.5,509.667 677.5,509.667 665.5,509C 664.667,508.167 663.833,507.333 663,506.5C 662.333,467.167 662.333,427.833 663,388.5C 664.145,387.364 665.312,386.364 666.5,385.5 Z"/></g>
<g><path style="opacity:0.968" fill="#000000" d="M 129.5,422.5 C 132.785,422.269 135.285,423.603 137,426.5C 155.672,452.519 173.838,478.852 191.5,505.5C 190.96,506.748 190.293,507.915 189.5,509C 175.5,509.667 161.5,509.667 147.5,509C 145.754,508.529 144.087,507.862 142.5,507C 129.717,489.936 117.55,472.436 106,454.5C 105.333,453.167 105.333,451.833 106,450.5C 107.944,446.89 110.277,443.557 113,440.5C 118.394,434.278 123.894,428.278 129.5,422.5 Z"/></g>
<g><path style="opacity:0.887" fill="#000000" d="M 238.5,574.5 C 242.03,573.989 245.196,574.656 248,576.5C 252.469,591.375 256.469,606.375 260,621.5C 263.687,606.085 267.687,590.752 272,575.5C 275.394,574.544 278.894,574.211 282.5,574.5C 286.226,589.514 290.059,604.514 294,619.5C 298.865,604.732 303.032,589.732 306.5,574.5C 309.898,574.18 313.232,574.513 316.5,575.5C 310.846,594.449 305.346,613.449 300,632.5C 296.333,633.833 292.667,633.833 289,632.5C 285.309,617.734 281.309,603.068 277,588.5C 273.006,603.476 269.173,618.476 265.5,633.5C 261.833,633.5 258.167,633.5 254.5,633.5C 249.167,613.833 243.833,594.167 238.5,574.5 Z"/></g>
<g><path style="opacity:0.881" fill="#000000" d="M 357.5,574.5 C 373.833,574.5 390.167,574.5 406.5,574.5C 406.5,577.5 406.5,580.5 406.5,583.5C 393.5,583.5 380.5,583.5 367.5,583.5C 367.5,588.5 367.5,593.5 367.5,598.5C 379.833,598.5 392.167,598.5 404.5,598.5C 404.5,601.5 404.5,604.5 404.5,607.5C 392.167,607.5 379.833,607.5 367.5,607.5C 367.5,613.167 367.5,618.833 367.5,624.5C 380.5,624.5 393.5,624.5 406.5,624.5C 406.5,627.5 406.5,630.5 406.5,633.5C 390.167,633.5 373.833,633.5 357.5,633.5C 357.5,613.833 357.5,594.167 357.5,574.5 Z"/></g>
<g><path style="opacity:0.89" fill="#000000" d="M 454.5,574.5 C 466.21,574.168 477.876,574.668 489.5,576C 499.896,579.452 503.729,586.618 501,597.5C 497.583,604.966 491.75,609.132 483.5,610C 491.677,617.345 499.677,624.845 507.5,632.5C 503.205,633.661 498.871,633.828 494.5,633C 485.863,625.364 477.53,617.364 469.5,609C 467.866,608.506 466.199,608.34 464.5,608.5C 464.5,616.833 464.5,625.167 464.5,633.5C 461.167,633.5 457.833,633.5 454.5,633.5C 454.5,613.833 454.5,594.167 454.5,574.5 Z M 464.5,583.5 C 471.508,583.334 478.508,583.5 485.5,584C 491.368,587.04 492.868,591.54 490,597.5C 489.097,598.701 487.931,599.535 486.5,600C 479.239,601.348 471.906,601.848 464.5,601.5C 464.5,595.5 464.5,589.5 464.5,583.5 Z"/></g>
<g><path style="opacity:0.883" fill="#000000" d="M 551.5,574.5 C 554.833,574.5 558.167,574.5 561.5,574.5C 561.169,583.192 561.502,591.859 562.5,600.5C 571.016,592.15 579.682,583.984 588.5,576C 593.083,574.286 597.749,574.119 602.5,575.5C 593.011,584.822 583.344,593.988 573.5,603C 584.043,613.046 594.709,622.879 605.5,632.5C 600.869,633.662 596.202,633.828 591.5,633C 581.667,623.833 571.833,614.667 562,605.5C 561.5,614.827 561.334,624.161 561.5,633.5C 558.167,633.5 554.833,633.5 551.5,633.5C 551.5,613.833 551.5,594.167 551.5,574.5 Z"/></g>
<g><path style="opacity:0.911" fill="#000000" d="M 684.5,574.5 C 691.322,574.163 697.655,575.663 703.5,579C 708.698,584.657 710.198,591.157 708,598.5C 702.497,608.992 694.997,617.825 685.5,625C 693.493,625.5 701.493,625.666 709.5,625.5C 709.5,628.167 709.5,630.833 709.5,633.5C 694.496,633.667 679.496,633.5 664.5,633C 676.878,621.372 687.711,608.538 697,594.5C 698.401,587.886 695.734,583.886 689,582.5C 681.872,583.628 678.372,587.794 678.5,595C 675.183,595.498 671.85,595.665 668.5,595.5C 667.867,583.814 673.201,576.814 684.5,574.5 Z"/></g>
<g><path style="opacity:0.916" fill="#000000" d="M 763.5,574.5 C 764.833,574.5 766.167,574.5 767.5,574.5C 767.5,588.167 767.5,601.833 767.5,615.5C 769.5,615.5 771.5,615.5 773.5,615.5C 773.5,617.833 773.5,620.167 773.5,622.5C 771.5,622.5 769.5,622.5 767.5,622.5C 767.5,626.167 767.5,629.833 767.5,633.5C 764.167,633.5 760.833,633.5 757.5,633.5C 757.5,629.833 757.5,626.167 757.5,622.5C 747.5,622.5 737.5,622.5 727.5,622.5C 727.343,621.127 727.51,619.793 728,618.5C 740.046,603.959 751.88,589.292 763.5,574.5 Z M 756.5,594.5 C 757.491,601.313 757.825,608.313 757.5,615.5C 751.794,615.829 746.128,615.495 740.5,614.5C 746.237,608.103 751.57,601.436 756.5,594.5 Z"/></g>
</svg>
