<?xml version="1.0" encoding="UTF-8"?>
<!DOCTYPE svg PUBLIC "-//W3C//DTD SVG 1.1//EN" "http://www.w3.org/Graphics/SVG/1.1/DTD/svg11.dtd">
<svg xmlns="http://www.w3.org/2000/svg" version="1.1" width="600px" height="568px" style="shape-rendering:geometricPrecision; text-rendering:geometricPrecision; image-rendering:optimizeQuality; fill-rule:evenodd; clip-rule:evenodd" xmlns:xlink="http://www.w3.org/1999/xlink">
<g><path style="opacity:0.569" fill="#fff1af" d="M 432.5,135.5 C 431.817,137.176 430.483,137.843 428.5,137.5C 429.183,135.824 430.517,135.157 432.5,135.5 Z"/></g>
<g><path style="opacity:0.208" fill="#fff1bb" d="M 427.5,137.5 C 427.489,139.017 426.823,140.184 425.5,141C 420.51,142.573 415.843,144.739 411.5,147.5C 406.833,149.833 402.167,152.167 397.5,154.5C 394.792,156.353 391.792,157.353 388.5,157.5C 390.508,155.636 392.841,153.97 395.5,152.5C 406.132,147.29 416.799,142.29 427.5,137.5 Z"/></g>
<g><path style="opacity:1" fill="#ffdb37" d="M 199.5,135.5 C 199.704,138.518 200.037,141.518 200.5,144.5C 210.839,144.666 221.172,144.5 231.5,144C 232.444,141.281 232.777,138.448 232.5,135.5C 233.5,135.5 234.5,135.5 235.5,135.5C 235.5,136.833 235.5,138.167 235.5,139.5C 234.275,140.152 233.608,141.319 233.5,143C 232.763,147.137 232.429,151.303 232.5,155.5C 221.833,155.5 211.167,155.5 200.5,155.5C 200.416,150.385 199.416,145.718 197.5,141.5C 197.025,138.918 197.692,136.918 199.5,135.5 Z"/></g>
<g><path style="opacity:1" fill="#ffd819" d="M 199.5,135.5 C 210.5,135.5 221.5,135.5 232.5,135.5C 232.777,138.448 232.444,141.281 231.5,144C 221.172,144.5 210.839,144.666 200.5,144.5C 200.037,141.518 199.704,138.518 199.5,135.5 Z"/></g>
<g><path style="opacity:0.994" fill="#ffde4c" d="M 432.5,135.5 C 433.5,135.5 434.5,135.5 435.5,135.5C 435.5,137.833 435.5,140.167 435.5,142.5C 433.771,143.953 432.771,145.953 432.5,148.5C 429,148.833 425.5,149.167 422,149.5C 418.098,149.488 414.598,148.821 411.5,147.5C 415.843,144.739 420.51,142.573 425.5,141C 426.823,140.184 427.489,139.017 427.5,137.5C 427.833,137.5 428.167,137.5 428.5,137.5C 430.483,137.843 431.817,137.176 432.5,135.5 Z"/></g>
<g><path style="opacity:0.996" fill="#ffe26e" d="M 435.5,142.5 C 435.5,144.5 435.5,146.5 435.5,148.5C 433.612,150.988 432.945,153.988 433.5,157.5C 420.829,157.667 408.162,157.5 395.5,157C 396.756,156.583 397.423,155.75 397.5,154.5C 402.167,152.167 406.833,149.833 411.5,147.5C 414.598,148.821 418.098,149.488 422,149.5C 425.5,149.167 429,148.833 432.5,148.5C 432.771,145.953 433.771,143.953 435.5,142.5 Z"/></g>
<g><path style="opacity:0.995" fill="#ffe686" d="M 435.5,148.5 C 435.5,151.833 435.5,155.167 435.5,158.5C 433.592,159.486 432.592,161.152 432.5,163.5C 415.83,163.667 399.163,163.5 382.5,163C 384.59,162.331 386.257,161.164 387.5,159.5C 387.5,158.833 387.5,158.167 387.5,157.5C 387.833,157.5 388.167,157.5 388.5,157.5C 391.792,157.353 394.792,156.353 397.5,154.5C 397.423,155.75 396.756,156.583 395.5,157C 408.162,157.5 420.829,157.667 433.5,157.5C 432.945,153.988 433.612,150.988 435.5,148.5 Z"/></g>
<g><path style="opacity:1" fill="#ffdf58" d="M 235.5,139.5 C 235.5,144.833 235.5,150.167 235.5,155.5C 234.883,155.389 234.383,155.056 234,154.5C 233.026,159.489 232.192,164.489 231.5,169.5C 221.167,169.5 210.833,169.5 200.5,169.5C 200.223,165.668 199.89,161.835 199.5,158C 199.453,155.705 198.787,153.871 197.5,152.5C 197.5,148.833 197.5,145.167 197.5,141.5C 199.416,145.718 200.416,150.385 200.5,155.5C 211.167,155.5 221.833,155.5 232.5,155.5C 232.429,151.303 232.763,147.137 233.5,143C 233.608,141.319 234.275,140.152 235.5,139.5 Z"/></g>
<g><path style="opacity:0.394" fill="#fff1c1" d="M 387.5,157.5 C 387.5,158.167 387.5,158.833 387.5,159.5C 381.919,162.131 376.586,165.131 371.5,168.5C 368.451,169.208 365.785,170.541 363.5,172.5C 359.86,173.15 356.527,174.65 353.5,177C 351.934,177.765 350.601,177.598 349.5,176.5C 361.912,169.798 374.579,163.464 387.5,157.5 Z"/></g>
<g><path style="opacity:0.994" fill="#ffe999" d="M 387.5,159.5 C 386.257,161.164 384.59,162.331 382.5,163C 399.163,163.5 415.83,163.667 432.5,163.5C 432.5,165.5 432.5,167.5 432.5,169.5C 412.091,169.821 391.758,169.488 371.5,168.5C 376.586,165.131 381.919,162.131 387.5,159.5 Z"/></g>
<g><path style="opacity:0.993" fill="#ffeca9" d="M 435.5,158.5 C 435.5,164.5 435.5,170.5 435.5,176.5C 428.85,179.491 422.183,182.491 415.5,185.5C 415.539,184.417 415.873,183.417 416.5,182.5C 418.396,181.725 420.063,180.725 421.5,179.5C 425.617,178.276 429.283,176.276 432.5,173.5C 409.51,172.5 386.51,172.167 363.5,172.5C 365.785,170.541 368.451,169.208 371.5,168.5C 391.758,169.488 412.091,169.821 432.5,169.5C 432.5,167.5 432.5,165.5 432.5,163.5C 432.592,161.152 433.592,159.486 435.5,158.5 Z"/></g>
<g><path style="opacity:0.988" fill="#ffe999" d="M 363.5,172.5 C 386.51,172.167 409.51,172.5 432.5,173.5C 429.283,176.276 425.617,178.276 421.5,179.5C 397.67,178.337 373.67,178.17 349.5,179C 346.678,180.622 343.678,181.789 340.5,182.5C 340.5,181.833 340.5,181.167 340.5,180.5C 343.272,178.719 346.272,177.386 349.5,176.5C 350.601,177.598 351.934,177.765 353.5,177C 356.527,174.65 359.86,173.15 363.5,172.5 Z"/></g>
<g><path style="opacity:1" fill="#ffe372" d="M 197.5,152.5 C 198.787,153.871 199.453,155.705 199.5,158C 199.89,161.835 200.223,165.668 200.5,169.5C 210.833,169.5 221.167,169.5 231.5,169.5C 232.192,164.489 233.026,159.489 234,154.5C 234.383,155.056 234.883,155.389 235.5,155.5C 235.5,158.833 235.5,162.167 235.5,165.5C 233.955,166.23 233.122,167.563 233,169.5C 232.768,173.555 232.268,177.555 231.5,181.5C 221.188,182.499 210.855,182.832 200.5,182.5C 200.493,179.962 200.159,177.462 199.5,175C 199.316,173.624 198.649,172.791 197.5,172.5C 197.5,165.833 197.5,159.167 197.5,152.5 Z"/></g>
<g><path style="opacity:0.995" fill="#ffe583" d="M 421.5,179.5 C 420.063,180.725 418.396,181.725 416.5,182.5C 415.873,183.417 415.539,184.417 415.5,185.5C 414.833,185.833 414.167,186.167 413.5,186.5C 411.95,185.28 410.284,185.28 408.5,186.5C 387.618,184.828 366.451,183.828 345,183.5C 341.143,184.339 337.309,185.339 333.5,186.5C 335.612,184.794 337.945,183.461 340.5,182.5C 343.678,181.789 346.678,180.622 349.5,179C 373.67,178.17 397.67,178.337 421.5,179.5 Z"/></g>
<g><path style="opacity:0.402" fill="#fff3cd" d="M 340.5,180.5 C 340.5,181.167 340.5,181.833 340.5,182.5C 337.945,183.461 335.612,184.794 333.5,186.5C 332.167,186.5 330.833,186.5 329.5,186.5C 332.362,183.232 336.028,181.232 340.5,180.5 Z"/></g>
<g><path style="opacity:0.999" fill="#ffe686" d="M 235.5,165.5 C 235.5,168.833 235.5,172.167 235.5,175.5C 234.778,175.918 234.278,176.584 234,177.5C 233.574,182.583 232.74,187.583 231.5,192.5C 221.188,193.499 210.855,193.832 200.5,193.5C 200.5,189.833 200.5,186.167 200.5,182.5C 210.855,182.832 221.188,182.499 231.5,181.5C 232.268,177.555 232.768,173.555 233,169.5C 233.122,167.563 233.955,166.23 235.5,165.5 Z"/></g>
<g><path style="opacity:0.997" fill="#ffe375" d="M 408.5,186.5 C 405.5,187.833 402.5,189.167 399.5,190.5C 388.687,189.168 377.521,188.501 366,188.5C 354.833,188.667 343.667,188.833 332.5,189C 328.694,190.617 324.694,191.45 320.5,191.5C 322.67,188.576 325.67,186.909 329.5,186.5C 330.833,186.5 332.167,186.5 333.5,186.5C 337.309,185.339 341.143,184.339 345,183.5C 366.451,183.828 387.618,184.828 408.5,186.5 Z"/></g>
<g><path style="opacity:0.173" fill="#fff4c5" d="M 413.5,186.5 C 409.12,189.357 404.453,191.69 399.5,193.5C 399.5,192.5 399.5,191.5 399.5,190.5C 402.5,189.167 405.5,187.833 408.5,186.5C 410.284,185.28 411.95,185.28 413.5,186.5 Z"/></g>
<g><path style="opacity:0.753" fill="#ffeead" d="M 319.5,191.5 C 319.586,192.496 319.252,193.329 318.5,194C 316.26,194.977 313.927,195.477 311.5,195.5C 313.281,192.645 315.948,191.312 319.5,191.5 Z"/></g>
<g><path style="opacity:0.994" fill="#ffdf5c" d="M 399.5,190.5 C 399.5,191.5 399.5,192.5 399.5,193.5C 398.833,193.5 398.167,193.5 397.5,193.5C 397.44,192.957 397.107,192.624 396.5,192.5C 392.708,194.044 389.042,195.71 385.5,197.5C 374.353,196.168 362.853,195.501 351,195.5C 339.5,195.667 328,195.833 316.5,196C 312.088,196.853 308.088,198.353 304.5,200.5C 305.806,199.533 306.473,198.199 306.5,196.5C 308.042,195.699 309.708,195.366 311.5,195.5C 313.927,195.477 316.26,194.977 318.5,194C 319.252,193.329 319.586,192.496 319.5,191.5C 319.833,191.5 320.167,191.5 320.5,191.5C 324.694,191.45 328.694,190.617 332.5,189C 343.667,188.833 354.833,188.667 366,188.5C 377.521,188.501 388.687,189.168 399.5,190.5 Z"/></g>
<g><path style="opacity:0.999" fill="#ffe997" d="M 197.5,172.5 C 198.649,172.791 199.316,173.624 199.5,175C 200.159,177.462 200.493,179.962 200.5,182.5C 200.5,186.167 200.5,189.833 200.5,193.5C 210.855,193.832 221.188,193.499 231.5,192.5C 232.74,187.583 233.574,182.583 234,177.5C 234.278,176.584 234.778,175.918 235.5,175.5C 235.5,179.5 235.5,183.5 235.5,187.5C 233.617,191.424 232.284,195.758 231.5,200.5C 221.188,201.499 210.855,201.832 200.5,201.5C 199.846,195.19 199.346,188.857 199,182.5C 198.617,181.944 198.117,181.611 197.5,181.5C 197.5,178.5 197.5,175.5 197.5,172.5 Z"/></g>
<g><path style="opacity:0.453" fill="#ffed9d" d="M 397.5,193.5 C 397.53,194.497 397.03,195.164 396,195.5C 390.387,197.727 384.887,200.061 379.5,202.5C 378.167,202.5 377.5,203.167 377.5,204.5C 376.292,205.234 374.959,205.567 373.5,205.5C 373.721,204.265 374.388,203.265 375.5,202.5C 378.673,200.447 382.006,198.78 385.5,197.5C 389.042,195.71 392.708,194.044 396.5,192.5C 397.107,192.624 397.44,192.957 397.5,193.5 Z"/></g>
<g><path style="opacity:0.494" fill="#ffeeb6" d="M 306.5,196.5 C 306.473,198.199 305.806,199.533 304.5,200.5C 303.167,200.5 301.833,200.5 300.5,200.5C 301.828,198.281 303.828,196.948 306.5,196.5 Z"/></g>
<g><path style="opacity:0.997" fill="#ffdc42" d="M 385.5,197.5 C 382.006,198.78 378.673,200.447 375.5,202.5C 374.388,203.265 373.721,204.265 373.5,205.5C 373.167,205.5 372.833,205.5 372.5,205.5C 371.833,205.5 371.167,205.5 370.5,205.5C 370.944,203.887 371.944,202.72 373.5,202C 350.833,201.333 328.167,201.333 305.5,202C 303.482,202.505 301.482,203.005 299.5,203.5C 299.5,202.5 299.5,201.5 299.5,200.5C 299.833,200.5 300.167,200.5 300.5,200.5C 301.833,200.5 303.167,200.5 304.5,200.5C 308.088,198.353 312.088,196.853 316.5,196C 328,195.833 339.5,195.667 351,195.5C 362.853,195.501 374.353,196.168 385.5,197.5 Z"/></g>
<g><path style="opacity:0.471" fill="#ffee9b" d="M 299.5,200.5 C 299.5,201.5 299.5,202.5 299.5,203.5C 296.849,204.49 294.183,205.49 291.5,206.5C 290.584,206.457 289.917,206.124 289.5,205.5C 292.713,203.698 296.046,202.032 299.5,200.5 Z"/></g>
<g><path style="opacity:0.999" fill="#ffeca8" d="M 197.5,181.5 C 198.117,181.611 198.617,181.944 199,182.5C 199.346,188.857 199.846,195.19 200.5,201.5C 210.855,201.832 221.188,201.499 231.5,200.5C 232.284,195.758 233.617,191.424 235.5,187.5C 235.5,199.5 235.5,211.5 235.5,223.5C 234.778,223.918 234.278,224.584 234,225.5C 232.774,220.586 231.941,215.586 231.5,210.5C 221.167,210.5 210.833,210.5 200.5,210.5C 199.971,215.822 199.471,221.156 199,226.5C 198.617,227.056 198.117,227.389 197.5,227.5C 197.5,212.167 197.5,196.833 197.5,181.5 Z"/></g>
<g><path style="opacity:0.008" fill="#fffbf2" d="M 379.5,202.5 C 379.5,203.833 378.833,204.5 377.5,204.5C 377.5,203.167 378.167,202.5 379.5,202.5 Z"/></g>
<g><path style="opacity:0.998" fill="#ffd922" d="M 370.5,205.5 C 370.5,206.167 370.5,206.833 370.5,207.5C 369.833,207.5 369.167,207.5 368.5,207.5C 364.65,207.97 360.983,208.97 357.5,210.5C 357.5,211.5 357.5,212.5 357.5,213.5C 356.292,214.234 354.959,214.567 353.5,214.5C 353.821,212.952 354.821,212.285 356.5,212.5C 356.5,211.5 356.5,210.5 356.5,209.5C 357.978,209.762 359.311,209.429 360.5,208.5C 338.602,207.828 316.768,207.162 295,206.5C 292.959,207.423 290.792,207.756 288.5,207.5C 288.5,206.833 288.5,206.167 288.5,205.5C 288.833,205.5 289.167,205.5 289.5,205.5C 289.917,206.124 290.584,206.457 291.5,206.5C 294.183,205.49 296.849,204.49 299.5,203.5C 301.482,203.005 303.482,202.505 305.5,202C 328.167,201.333 350.833,201.333 373.5,202C 371.944,202.72 370.944,203.887 370.5,205.5 Z"/></g>
<g><path style="opacity:0.106" fill="#fffee1" d="M 370.5,205.5 C 371.167,205.5 371.833,205.5 372.5,205.5C 372.5,206.833 371.833,207.5 370.5,207.5C 370.5,206.833 370.5,206.167 370.5,205.5 Z"/></g>
<g><path style="opacity:0.216" fill="#ffefad" d="M 368.5,207.5 C 365.638,210.768 361.972,212.768 357.5,213.5C 357.5,212.5 357.5,211.5 357.5,210.5C 360.983,208.97 364.65,207.97 368.5,207.5 Z"/></g>
<g><path style="opacity:0.994" fill="#fcd109" d="M 353.5,214.5 C 352.221,215.968 350.554,216.635 348.5,216.5C 344.305,217.389 340.305,218.722 336.5,220.5C 312.137,219.175 287.804,219.175 263.5,220.5C 263.5,219.833 263.5,219.167 263.5,218.5C 263.833,218.5 264.167,218.5 264.5,218.5C 267.5,217.833 270.5,217.167 273.5,216.5C 273.5,215.5 273.5,214.5 273.5,213.5C 274.167,213.5 274.833,213.5 275.5,213.5C 280.288,212.352 284.621,210.352 288.5,207.5C 290.792,207.756 292.959,207.423 295,206.5C 316.768,207.162 338.602,207.828 360.5,208.5C 359.311,209.429 357.978,209.762 356.5,209.5C 356.5,210.5 356.5,211.5 356.5,212.5C 354.821,212.285 353.821,212.952 353.5,214.5 Z"/></g>
<g><path style="opacity:0.51" fill="#ffe77c" d="M 288.5,205.5 C 288.5,206.167 288.5,206.833 288.5,207.5C 284.621,210.352 280.288,212.352 275.5,213.5C 279.28,210.101 283.613,207.435 288.5,205.5 Z"/></g>
<g><path style="opacity:0.365" fill="#fce274" d="M 273.5,213.5 C 273.5,214.5 273.5,215.5 273.5,216.5C 270.5,217.167 267.5,217.833 264.5,218.5C 266.701,215.681 269.701,214.015 273.5,213.5 Z"/></g>
<g><path style="opacity:0.999" fill="#ffe996" d="M 235.5,223.5 C 235.5,233.833 235.5,244.167 235.5,254.5C 233.631,250.956 232.631,246.956 232.5,242.5C 232.788,236.771 232.454,231.104 231.5,225.5C 221.188,224.501 210.855,224.168 200.5,224.5C 200.315,232.221 199.315,239.554 197.5,246.5C 197.5,240.167 197.5,233.833 197.5,227.5C 198.117,227.389 198.617,227.056 199,226.5C 199.471,221.156 199.971,215.822 200.5,210.5C 210.833,210.5 221.167,210.5 231.5,210.5C 231.941,215.586 232.774,220.586 234,225.5C 234.278,224.584 234.778,223.918 235.5,223.5 Z"/></g>
<g><path style="opacity:0.114" fill="#fde585" d="M 348.5,216.5 C 346.233,219.072 343.399,221.072 340,222.5C 338.56,223.148 337.06,223.481 335.5,223.5C 335.557,222.391 335.89,221.391 336.5,220.5C 340.305,218.722 344.305,217.389 348.5,216.5 Z"/></g>
<g><path style="opacity:0.353" fill="#fbda6b" d="M 263.5,218.5 C 263.5,219.167 263.5,219.833 263.5,220.5C 261.432,221.375 259.432,222.541 257.5,224C 255.934,224.765 254.601,224.598 253.5,223.5C 256.526,221.32 259.86,219.653 263.5,218.5 Z"/></g>
<g><path style="opacity:0.996" fill="#f7c30f" d="M 336.5,220.5 C 335.89,221.391 335.557,222.391 335.5,223.5C 335.167,223.5 334.833,223.5 334.5,223.5C 329.594,225.313 324.594,226.98 319.5,228.5C 319.5,229.5 319.5,230.5 319.5,231.5C 317.958,232.301 316.292,232.634 314.5,232.5C 312.621,232.607 312.288,232.107 313.5,231C 291.81,231.158 270.476,230.325 249.5,228.5C 249.821,226.952 250.821,226.285 252.5,226.5C 252.5,225.5 252.5,224.5 252.5,223.5C 252.833,223.5 253.167,223.5 253.5,223.5C 254.601,224.598 255.934,224.765 257.5,224C 259.432,222.541 261.432,221.375 263.5,220.5C 287.804,219.175 312.137,219.175 336.5,220.5 Z"/></g>
<g><path style="opacity:0.263" fill="#fce6a5" d="M 334.5,223.5 C 330.282,227.411 325.282,230.078 319.5,231.5C 319.5,230.5 319.5,229.5 319.5,228.5C 324.594,226.98 329.594,225.313 334.5,223.5 Z"/></g>
<g><path style="opacity:0.506" fill="#fff0a5" d="M 429.5,229.5 C 428.555,232.987 426.222,234.32 422.5,233.5C 424.292,231.431 426.626,230.097 429.5,229.5 Z"/></g>
<g><path style="opacity:1" fill="#f3b914" d="M 249.5,228.5 C 270.476,230.325 291.81,231.158 313.5,231C 312.288,232.107 312.621,232.607 314.5,232.5C 314.179,234.048 313.179,234.715 311.5,234.5C 309.146,234.838 306.813,235.338 304.5,236C 303.663,237.011 303.33,238.178 303.5,239.5C 301.058,239.646 300.391,238.813 301.5,237C 284.17,236.5 266.837,236.333 249.5,236.5C 249.167,236.5 248.833,236.5 248.5,236.5C 248.194,233.615 248.527,230.948 249.5,228.5 Z"/></g>
<g><path style="opacity:0.999" fill="#ffe580" d="M 232.5,242.5 C 231.596,241.791 231.263,240.791 231.5,239.5C 221.167,239.5 210.833,239.5 200.5,239.5C 200.056,246.827 199.723,254.16 199.5,261.5C 199.158,262.338 198.492,262.672 197.5,262.5C 197.5,257.167 197.5,251.833 197.5,246.5C 199.315,239.554 200.315,232.221 200.5,224.5C 210.855,224.168 221.188,224.501 231.5,225.5C 232.454,231.104 232.788,236.771 232.5,242.5 Z"/></g>
<g><path style="opacity:0.373" fill="#f6c959" d="M 252.5,223.5 C 252.5,224.5 252.5,225.5 252.5,226.5C 250.821,226.285 249.821,226.952 249.5,228.5C 248.527,230.948 248.194,233.615 248.5,236.5C 248.5,241.5 248.5,246.5 248.5,251.5C 246.53,243.231 245.864,234.565 246.5,225.5C 248.685,225.296 250.685,224.63 252.5,223.5 Z"/></g>
<g><path style="opacity:0.999" fill="#f1b112" d="M 249.5,236.5 C 266.837,236.333 284.17,236.5 301.5,237C 300.391,238.813 301.058,239.646 303.5,239.5C 305.5,239.833 307.5,240.167 309.5,240.5C 309.833,240.5 310.167,240.5 310.5,240.5C 310.5,241.5 310.5,242.5 310.5,243.5C 290.167,243.5 269.833,243.5 249.5,243.5C 249.5,241.167 249.5,238.833 249.5,236.5 Z"/></g>
<g><path style="opacity:0.769" fill="#fae3ab" d="M 311.5,234.5 C 310.28,236.282 309.614,238.282 309.5,240.5C 307.5,240.167 305.5,239.833 303.5,239.5C 303.33,238.178 303.663,237.011 304.5,236C 306.813,235.338 309.146,234.838 311.5,234.5 Z"/></g>
<g><path style="opacity:0.425" fill="#ffeb9a" d="M 418.5,234.5 C 418.5,235.5 418.5,236.5 418.5,237.5C 413.632,240.017 408.632,242.35 403.5,244.5C 402.508,244.672 401.842,244.338 401.5,243.5C 406.998,240.25 412.665,237.25 418.5,234.5 Z"/></g>
<g><path style="opacity:1" fill="#ffe26e" d="M 232.5,242.5 C 232.631,246.956 233.631,250.956 235.5,254.5C 235.5,259.833 235.5,265.167 235.5,270.5C 234.235,269.486 233.569,267.986 233.5,266C 233.087,261.112 232.42,256.279 231.5,251.5C 221.188,250.501 210.855,250.168 200.5,250.5C 200.815,254.371 200.482,258.038 199.5,261.5C 199.723,254.16 200.056,246.827 200.5,239.5C 210.833,239.5 221.167,239.5 231.5,239.5C 231.263,240.791 231.596,241.791 232.5,242.5 Z"/></g>
<g><path style="opacity:0.427" fill="#fbdfa7" d="M 317.5,243.5 C 322.137,244.485 326.137,246.485 329.5,249.5C 325.582,249.271 321.915,248.271 318.5,246.5C 317.596,245.791 317.263,244.791 317.5,243.5 Z"/></g>
<g><path style="opacity:0.996" fill="#ffdc47" d="M 429.5,229.5 C 431.5,229.5 433.5,229.5 435.5,229.5C 435.5,230.5 435.5,231.5 435.5,232.5C 434.252,233.334 433.585,234.667 433.5,236.5C 432.947,239.817 432.614,243.15 432.5,246.5C 422.442,247.14 412.775,246.473 403.5,244.5C 408.632,242.35 413.632,240.017 418.5,237.5C 418.5,236.5 418.5,235.5 418.5,234.5C 419.708,233.766 421.041,233.433 422.5,233.5C 426.222,234.32 428.555,232.987 429.5,229.5 Z"/></g>
<g><path style="opacity:0.996" fill="#efa916" d="M 248.5,236.5 C 248.833,236.5 249.167,236.5 249.5,236.5C 249.5,238.833 249.5,241.167 249.5,243.5C 269.833,243.5 290.167,243.5 310.5,243.5C 310.5,242.5 310.5,241.5 310.5,240.5C 312.696,241.763 315.03,242.763 317.5,243.5C 317.263,244.791 317.596,245.791 318.5,246.5C 319.507,247.828 320.84,248.828 322.5,249.5C 327.967,250.062 332.301,252.395 335.5,256.5C 313.458,256.522 291.625,256.522 270,256.5C 270.499,257.894 271.333,259.228 272.5,260.5C 266.169,257.438 259.835,254.271 253.5,251C 251.934,250.235 250.601,250.402 249.5,251.5C 249.167,251.5 248.833,251.5 248.5,251.5C 248.5,246.5 248.5,241.5 248.5,236.5 Z"/></g>
<g><path style="opacity:0.518" fill="#ffeeb1" d="M 400.5,243.5 C 400.598,246.248 399.598,246.914 397.5,245.5C 397.821,243.952 398.821,243.285 400.5,243.5 Z"/></g>
<g><path style="opacity:0.993" fill="#ffdf5d" d="M 435.5,232.5 C 435.5,236.5 435.5,240.5 435.5,244.5C 433.661,246.653 432.661,249.32 432.5,252.5C 418.459,253.149 404.792,252.482 391.5,250.5C 394.335,249.931 396.001,248.264 396.5,245.5C 396.833,245.5 397.167,245.5 397.5,245.5C 399.598,246.914 400.598,246.248 400.5,243.5C 400.833,243.5 401.167,243.5 401.5,243.5C 401.842,244.338 402.508,244.672 403.5,244.5C 412.775,246.473 422.442,247.14 432.5,246.5C 432.614,243.15 432.947,239.817 433.5,236.5C 433.585,234.667 434.252,233.334 435.5,232.5 Z"/></g>
<g><path style="opacity:0.388" fill="#ffe997" d="M 396.5,245.5 C 396.001,248.264 394.335,249.931 391.5,250.5C 389.117,253.062 386.451,253.729 383.5,252.5C 387.657,249.92 391.991,247.587 396.5,245.5 Z"/></g>
<g><path style="opacity:0.149" fill="#f7d18c" d="M 272.5,260.5 C 274.588,261.939 276.921,262.606 279.5,262.5C 279.5,263.5 279.5,264.5 279.5,265.5C 268.963,261.897 258.963,257.23 249.5,251.5C 250.601,250.402 251.934,250.235 253.5,251C 259.835,254.271 266.169,257.438 272.5,260.5 Z"/></g>
<g><path style="opacity:0.998" fill="#ffe26e" d="M 391.5,250.5 C 404.792,252.482 418.459,253.149 432.5,252.5C 432.5,254.833 432.5,257.167 432.5,259.5C 414.164,259.667 395.83,259.5 377.5,259C 378.219,256.444 379.886,255.277 382.5,255.5C 382.5,254.5 382.5,253.5 382.5,252.5C 382.833,252.5 383.167,252.5 383.5,252.5C 386.451,253.729 389.117,253.062 391.5,250.5 Z"/></g>
<g><path style="opacity:1" fill="#fedc52" d="M 235.5,270.5 C 235.5,287.167 235.5,303.833 235.5,320.5C 234.698,319.048 234.198,317.382 234,315.5C 233.828,322.013 233.328,328.347 232.5,334.5C 232.5,332.5 232.5,330.5 232.5,328.5C 232.5,321.167 232.5,313.833 232.5,306.5C 233.68,296.655 233.68,286.655 232.5,276.5C 232.628,272.119 232.295,267.785 231.5,263.5C 221.167,263.5 210.833,263.5 200.5,263.5C 200.5,267.167 200.5,270.833 200.5,274.5C 199.507,282.65 199.174,290.983 199.5,299.5C 199.5,312.833 199.5,326.167 199.5,339.5C 199.5,341.5 199.5,343.5 199.5,345.5C 198.833,343.833 198.167,342.167 197.5,340.5C 197.5,314.5 197.5,288.5 197.5,262.5C 198.492,262.672 199.158,262.338 199.5,261.5C 200.482,258.038 200.815,254.371 200.5,250.5C 210.855,250.168 221.188,250.501 231.5,251.5C 232.42,256.279 233.087,261.112 233.5,266C 233.569,267.986 234.235,269.486 235.5,270.5 Z"/></g>
<g><path style="opacity:0.995" fill="#eb9f16" d="M 335.5,256.5 C 336.5,256.5 337.5,256.5 338.5,256.5C 338.5,257.833 338.5,259.167 338.5,260.5C 328.85,264.677 319.183,269.01 309.5,273.5C 309.5,274.5 309.5,275.5 309.5,276.5C 307.5,276.5 305.5,276.5 303.5,276.5C 303.5,275.5 303.5,274.5 303.5,273.5C 300.245,273.986 297.578,272.986 295.5,270.5C 293.223,269.579 290.89,268.913 288.5,268.5C 286.078,266.96 283.411,265.96 280.5,265.5C 280.167,265.5 279.833,265.5 279.5,265.5C 279.5,264.5 279.5,263.5 279.5,262.5C 276.921,262.606 274.588,261.939 272.5,260.5C 271.333,259.228 270.499,257.894 270,256.5C 291.625,256.522 313.458,256.522 335.5,256.5 Z"/></g>
<g><path style="opacity:0.943" fill="#f2b648" d="M 318.5,246.5 C 321.915,248.271 325.582,249.271 329.5,249.5C 334.173,251.169 338.84,252.835 343.5,254.5C 343.5,256.167 343.5,257.833 343.5,259.5C 341.708,259.366 340.042,259.699 338.5,260.5C 338.5,259.167 338.5,257.833 338.5,256.5C 337.5,256.5 336.5,256.5 335.5,256.5C 332.301,252.395 327.967,250.062 322.5,249.5C 320.84,248.828 319.507,247.828 318.5,246.5 Z"/></g>
<g><path style="opacity:0.998" fill="#ffe686" d="M 435.5,244.5 C 435.5,249.833 435.5,255.167 435.5,260.5C 433.914,262.081 432.914,264.081 432.5,266.5C 431.271,267.281 429.938,267.781 428.5,268C 404.833,268.667 381.167,268.667 357.5,268C 360.858,266.968 363.525,265.135 365.5,262.5C 368.267,262.13 370.267,260.796 371.5,258.5C 374.972,256.187 378.639,254.187 382.5,252.5C 382.5,253.5 382.5,254.5 382.5,255.5C 379.886,255.277 378.219,256.444 377.5,259C 395.83,259.5 414.164,259.667 432.5,259.5C 432.5,257.167 432.5,254.833 432.5,252.5C 432.661,249.32 433.661,246.653 435.5,244.5 Z"/></g>
<g><path style="opacity:0.184" fill="#f5c77d" d="M 343.5,259.5 C 332.804,266.181 321.471,271.848 309.5,276.5C 309.5,275.5 309.5,274.5 309.5,273.5C 319.183,269.01 328.85,264.677 338.5,260.5C 340.042,259.699 341.708,259.366 343.5,259.5 Z"/></g>
<g><path style="opacity:0.322" fill="#fff7dc" d="M 371.5,258.5 C 370.267,260.796 368.267,262.13 365.5,262.5C 361.394,264.388 357.394,266.554 353.5,269C 351.866,269.494 350.199,269.66 348.5,269.5C 355.497,264.497 363.164,260.831 371.5,258.5 Z"/></g>
<g><path style="opacity:0.447" fill="#f7dfb6" d="M 280.5,265.5 C 283.411,265.96 286.078,266.96 288.5,268.5C 288.5,269.167 288.5,269.833 288.5,270.5C 284.687,270.511 282.02,268.845 280.5,265.5 Z"/></g>
<g><path style="opacity:0.996" fill="#ffe99a" d="M 435.5,260.5 C 436.055,264.012 435.388,267.012 433.5,269.5C 428.09,268.679 423.423,270.512 419.5,275C 417.618,275.198 415.952,275.698 414.5,276.5C 390.824,276.833 367.157,276.5 343.5,275.5C 344.993,274.859 345.993,273.859 346.5,272.5C 347.551,271.778 348.218,270.778 348.5,269.5C 350.199,269.66 351.866,269.494 353.5,269C 357.394,266.554 361.394,264.388 365.5,262.5C 363.525,265.135 360.858,266.968 357.5,268C 381.167,268.667 404.833,268.667 428.5,268C 429.938,267.781 431.271,267.281 432.5,266.5C 432.914,264.081 433.914,262.081 435.5,260.5 Z"/></g>
<g><path style="opacity:1" fill="#ffdb3c" d="M 232.5,276.5 C 231.596,275.791 231.263,274.791 231.5,273.5C 221.085,273.192 210.751,273.525 200.5,274.5C 200.5,270.833 200.5,267.167 200.5,263.5C 210.833,263.5 221.167,263.5 231.5,263.5C 232.295,267.785 232.628,272.119 232.5,276.5 Z"/></g>
<g><path style="opacity:0.267" fill="#f6ddb5" d="M 289.5,270.5 C 291.483,270.157 292.817,270.824 293.5,272.5C 291.517,272.843 290.183,272.176 289.5,270.5 Z"/></g>
<g><path style="opacity:0.361" fill="#fff6da" d="M 348.5,269.5 C 348.218,270.778 347.551,271.778 346.5,272.5C 342.684,274.298 338.684,275.631 334.5,276.5C 338.494,273.043 343.161,270.71 348.5,269.5 Z"/></g>
<g><path style="opacity:0.341" fill="#efb152" d="M 288.5,268.5 C 290.89,268.913 293.223,269.579 295.5,270.5C 297.578,272.986 300.245,273.986 303.5,273.5C 303.5,274.5 303.5,275.5 303.5,276.5C 299.677,276.251 296.344,274.917 293.5,272.5C 292.817,270.824 291.483,270.157 289.5,270.5C 289.167,270.5 288.833,270.5 288.5,270.5C 288.5,269.833 288.5,269.167 288.5,268.5 Z"/></g>
<g><path style="opacity:0.991" fill="#ffeca7" d="M 346.5,272.5 C 345.993,273.859 344.993,274.859 343.5,275.5C 367.157,276.5 390.824,276.833 414.5,276.5C 409.652,277.998 404.986,279.998 400.5,282.5C 401.463,281.637 401.463,280.97 400.5,280.5C 377.97,281.829 355.47,281.829 333,280.5C 330.913,281.397 328.746,282.064 326.5,282.5C 326.5,281.5 326.5,280.5 326.5,279.5C 328.968,277.965 331.635,276.965 334.5,276.5C 338.684,275.631 342.684,274.298 346.5,272.5 Z"/></g>
<g><path style="opacity:0.996" fill="#ffe99b" d="M 400.5,282.5 C 398.68,284.448 396.346,285.448 393.5,285.5C 393.5,286.5 393.5,287.5 393.5,288.5C 391.379,288.325 389.379,288.659 387.5,289.5C 376.353,288.168 364.853,287.501 353,287.5C 340.469,287.529 327.969,287.862 315.5,288.5C 318.709,285.768 322.375,283.768 326.5,282.5C 328.746,282.064 330.913,281.397 333,280.5C 355.47,281.829 377.97,281.829 400.5,280.5C 401.463,280.97 401.463,281.637 400.5,282.5 Z"/></g>
<g><path style="opacity:1" fill="#fed60e" d="M 232.5,276.5 C 233.68,286.655 233.68,296.655 232.5,306.5C 232.67,305.178 232.337,304.011 231.5,303C 221.5,302.667 211.5,302.333 201.5,302C 200.934,301.005 200.267,300.172 199.5,299.5C 199.174,290.983 199.507,282.65 200.5,274.5C 210.751,273.525 221.085,273.192 231.5,273.5C 231.263,274.791 231.596,275.791 232.5,276.5 Z"/></g>
<g><path style="opacity:0.178" fill="#fff3ca" d="M 433.5,269.5 C 425.12,274.965 416.12,279.298 406.5,282.5C 402.982,284.423 399.649,286.59 396.5,289C 388.158,292.505 379.825,296.005 371.5,299.5C 375.987,294.956 381.32,291.622 387.5,289.5C 389.379,288.659 391.379,288.325 393.5,288.5C 393.5,287.5 393.5,286.5 393.5,285.5C 396.346,285.448 398.68,284.448 400.5,282.5C 404.986,279.998 409.652,277.998 414.5,276.5C 415.952,275.698 417.618,275.198 419.5,275C 423.423,270.512 428.09,268.679 433.5,269.5 Z"/></g>
<g><path style="opacity:0.997" fill="#ffe78a" d="M 387.5,289.5 C 381.32,291.622 375.987,294.956 371.5,299.5C 371.167,299.5 370.833,299.5 370.5,299.5C 369.167,299.5 367.833,299.5 366.5,299.5C 368.294,298.143 370.294,296.977 372.5,296C 349.594,295.828 326.761,295.328 304,294.5C 303.329,295.252 302.496,295.586 301.5,295.5C 305.849,292.659 310.516,290.326 315.5,288.5C 327.969,287.862 340.469,287.529 353,287.5C 364.853,287.501 376.353,288.168 387.5,289.5 Z"/></g>
<g><path style="opacity:0.333" fill="#fff0be" d="M 326.5,279.5 C 326.5,280.5 326.5,281.5 326.5,282.5C 322.375,283.768 318.709,285.768 315.5,288.5C 310.516,290.326 305.849,292.659 301.5,295.5C 298.509,297.417 295.176,298.417 291.5,298.5C 292.007,297.141 293.007,296.141 294.5,295.5C 305.369,290.47 316.035,285.136 326.5,279.5 Z"/></g>
<g><path style="opacity:0.993" fill="#ffe47d" d="M 366.5,299.5 C 363.414,301.201 360.081,302.534 356.5,303.5C 334.337,302.337 312.004,302.17 289.5,303C 283.886,303.82 278.552,305.32 273.5,307.5C 277.12,304.256 281.286,301.589 286,299.5C 287.766,298.767 289.599,298.433 291.5,298.5C 295.176,298.417 298.509,297.417 301.5,295.5C 302.496,295.586 303.329,295.252 304,294.5C 326.761,295.328 349.594,295.828 372.5,296C 370.294,296.977 368.294,298.143 366.5,299.5 Z"/></g>
<g><path style="opacity:0.996" fill="#ffe26d" d="M 356.5,303.5 C 353.078,305.94 349.411,307.94 345.5,309.5C 334.687,308.168 323.521,307.501 312,307.5C 300.833,307.667 289.667,307.833 278.5,308C 274.834,308.666 271.334,309.833 268,311.5C 266.97,311.164 266.47,310.497 266.5,309.5C 268.515,308.076 270.848,307.41 273.5,307.5C 278.552,305.32 283.886,303.82 289.5,303C 312.004,302.17 334.337,302.337 356.5,303.5 Z"/></g>
<g><path style="opacity:0.331" fill="#fff0ba" d="M 264.5,310.5 C 264.5,311.5 264.5,312.5 264.5,313.5C 262.447,313.402 260.78,314.069 259.5,315.5C 258.167,315.833 256.833,316.167 255.5,316.5C 255.539,315.417 255.873,314.417 256.5,313.5C 258.99,311.917 261.657,310.917 264.5,310.5 Z"/></g>
<g><path style="opacity:0.996" fill="#ffdf5a" d="M 345.5,309.5 C 341.074,312.046 336.408,314.046 331.5,315.5C 307.646,314.202 283.646,314.202 259.5,315.5C 260.78,314.069 262.447,313.402 264.5,313.5C 264.5,312.5 264.5,311.5 264.5,310.5C 265.167,310.167 265.833,309.833 266.5,309.5C 266.47,310.497 266.97,311.164 268,311.5C 271.334,309.833 274.834,308.666 278.5,308C 289.667,307.833 300.833,307.667 312,307.5C 323.521,307.501 334.687,308.168 345.5,309.5 Z"/></g>
<g><path style="opacity:0.29" fill="#ffeeac" d="M 366.5,299.5 C 367.833,299.5 369.167,299.5 370.5,299.5C 369.652,301.093 368.319,302.26 366.5,303C 351.467,309.851 336.467,316.685 321.5,323.5C 321.414,322.504 321.748,321.671 322.5,321C 325.573,319.137 328.573,317.304 331.5,315.5C 336.408,314.046 341.074,312.046 345.5,309.5C 349.411,307.94 353.078,305.94 356.5,303.5C 360.081,302.534 363.414,301.201 366.5,299.5 Z"/></g>
<g><path style="opacity:1" fill="#f9c60a" d="M 199.5,299.5 C 200.267,300.172 200.934,301.005 201.5,302C 211.5,302.333 221.5,302.667 231.5,303C 232.337,304.011 232.67,305.178 232.5,306.5C 232.5,313.833 232.5,321.167 232.5,328.5C 231.549,327.081 231.216,325.415 231.5,323.5C 221.167,323.5 210.833,323.5 200.5,323.5C 200.5,328.833 200.5,334.167 200.5,339.5C 200.167,339.5 199.833,339.5 199.5,339.5C 199.5,326.167 199.5,312.833 199.5,299.5 Z"/></g>
<g><path style="opacity:0.995" fill="#ffdd4b" d="M 331.5,315.5 C 328.573,317.304 325.573,319.137 322.5,321C 321.748,321.671 321.414,322.504 321.5,323.5C 319.453,325.075 317.119,326.075 314.5,326.5C 313.833,326.5 313.167,326.5 312.5,326.5C 314.046,324.242 316.046,322.409 318.5,321C 294.48,320.217 270.48,320.383 246.5,321.5C 246.5,321.167 246.5,320.833 246.5,320.5C 249.857,320.784 252.191,319.451 253.5,316.5C 254.167,316.5 254.833,316.5 255.5,316.5C 256.833,316.167 258.167,315.833 259.5,315.5C 283.646,314.202 307.646,314.202 331.5,315.5 Z"/></g>
<g><path style="opacity:0.718" fill="#fff1b5" d="M 253.5,316.5 C 252.191,319.451 249.857,320.784 246.5,320.5C 246.5,319.5 246.5,318.5 246.5,317.5C 248.806,317.007 251.139,316.674 253.5,316.5 Z"/></g>
<g><path style="opacity:0.992" fill="#ffda2e" d="M 312.5,326.5 C 309.147,327.061 306.147,328.395 303.5,330.5C 304.32,332.111 305.654,332.778 307.5,332.5C 307.833,332.5 308.167,332.5 308.5,332.5C 308.5,333.167 308.5,333.833 308.5,334.5C 306.621,333.659 304.621,333.325 302.5,333.5C 302.5,331.833 302.5,330.167 302.5,328.5C 283.833,328.5 265.167,328.5 246.5,328.5C 246.5,326.167 246.5,323.833 246.5,321.5C 270.48,320.383 294.48,320.217 318.5,321C 316.046,322.409 314.046,324.242 312.5,326.5 Z"/></g>
<g><path style="opacity:0.29" fill="#fff4c3" d="M 312.5,326.5 C 313.167,326.5 313.833,326.5 314.5,326.5C 312.337,328.741 310.004,330.741 307.5,332.5C 305.654,332.778 304.32,332.111 303.5,330.5C 306.147,328.395 309.147,327.061 312.5,326.5 Z"/></g>
<g><path style="opacity:0.987" fill="#fed708" d="M 246.5,328.5 C 265.167,328.5 283.833,328.5 302.5,328.5C 302.5,330.167 302.5,331.833 302.5,333.5C 304.621,333.325 306.621,333.659 308.5,334.5C 310.102,336.074 312.102,336.741 314.5,336.5C 314.833,336.5 315.167,336.5 315.5,336.5C 315.631,337.239 315.464,337.906 315,338.5C 313.266,337.751 311.433,337.251 309.5,337C 288.271,337.139 267.271,336.306 246.5,334.5C 246.5,332.5 246.5,330.5 246.5,328.5 Z"/></g>
<g><path style="opacity:0.983" fill="#fcd107" d="M 246.5,334.5 C 267.271,336.306 288.271,337.139 309.5,337C 311.433,337.251 313.266,337.751 315,338.5C 315.464,337.906 315.631,337.239 315.5,336.5C 316.959,336.433 318.292,336.766 319.5,337.5C 319.721,339.664 320.721,341.33 322.5,342.5C 300.01,342.371 277.343,342.538 254.5,343C 255.756,343.417 256.423,344.25 256.5,345.5C 254.176,344.923 252.01,343.923 250,342.5C 249.098,342.743 248.265,343.077 247.5,343.5C 246.523,340.713 246.19,337.713 246.5,334.5 Z"/></g>
<g><path style="opacity:0.375" fill="#ffea85" d="M 308.5,332.5 C 311.172,332.948 313.172,334.281 314.5,336.5C 312.102,336.741 310.102,336.074 308.5,334.5C 308.5,333.833 308.5,333.167 308.5,332.5 Z"/></g>
<g><path style="opacity:1" fill="#f4ba0c" d="M 232.5,328.5 C 232.5,330.5 232.5,332.5 232.5,334.5C 232.5,341.167 232.5,347.833 232.5,354.5C 231.523,351.713 231.19,348.713 231.5,345.5C 221.167,345.5 210.833,345.5 200.5,345.5C 200.5,343.5 200.5,341.5 200.5,339.5C 200.5,334.167 200.5,328.833 200.5,323.5C 210.833,323.5 221.167,323.5 231.5,323.5C 231.216,325.415 231.549,327.081 232.5,328.5 Z"/></g>
<g><path style="opacity:0.208" fill="#f5c745" d="M 235.5,320.5 C 235.5,333.5 235.5,346.5 235.5,359.5C 234.883,359.389 234.383,359.056 234,358.5C 233.802,360.382 233.302,362.048 232.5,363.5C 232.5,360.5 232.5,357.5 232.5,354.5C 232.5,347.833 232.5,341.167 232.5,334.5C 233.328,328.347 233.828,322.013 234,315.5C 234.198,317.382 234.698,319.048 235.5,320.5 Z"/></g>
<g><path style="opacity:0.997" fill="#facb04" d="M 322.5,342.5 C 324.542,344.591 326.875,344.924 329.5,343.5C 329.833,343.5 330.167,343.5 330.5,343.5C 330.5,344.5 330.5,345.5 330.5,346.5C 332.346,346.222 333.68,346.889 334.5,348.5C 312.465,349.177 290.465,349.844 268.5,350.5C 267.583,349.873 266.583,349.539 265.5,349.5C 262.373,348.436 259.373,347.103 256.5,345.5C 256.423,344.25 255.756,343.417 254.5,343C 277.343,342.538 300.01,342.371 322.5,342.5 Z"/></g>
<g><path style="opacity:0.835" fill="#fcd954" d="M 319.5,337.5 C 323.237,339.026 326.57,341.026 329.5,343.5C 326.875,344.924 324.542,344.591 322.5,342.5C 320.721,341.33 319.721,339.664 319.5,337.5 Z"/></g>
<g><path style="opacity:0.21" fill="#fffeee" d="M 332.5,343.5 C 333.833,343.5 334.5,344.167 334.5,345.5C 334.5,344.167 333.833,343.5 332.5,343.5 Z"/></g>
<g><path style="opacity:1" fill="#f1b210" d="M 200.5,345.5 C 210.833,345.5 221.167,345.5 231.5,345.5C 231.19,348.713 231.523,351.713 232.5,354.5C 232.5,357.5 232.5,360.5 232.5,363.5C 232.5,364.833 232.5,366.167 232.5,367.5C 231.532,365.393 231.198,363.059 231.5,360.5C 221.167,360.5 210.833,360.5 200.5,360.5C 200.5,355.5 200.5,350.5 200.5,345.5 Z"/></g>
<g><path style="opacity:0.196" fill="#fee89f" d="M 335.5,345.5 C 339.313,345.489 341.98,347.155 343.5,350.5C 339.784,350.318 337.117,348.652 335.5,345.5 Z"/></g>
<g><path style="opacity:0.592" fill="#fde071" d="M 256.5,345.5 C 259.373,347.103 262.373,348.436 265.5,349.5C 268.225,351.518 270.891,353.518 273.5,355.5C 271.073,355.477 268.74,354.977 266.5,354C 260.21,350.184 253.876,346.684 247.5,343.5C 248.265,343.077 249.098,342.743 250,342.5C 252.01,343.923 254.176,344.923 256.5,345.5 Z"/></g>
<g><path style="opacity:0.996" fill="#f8c50e" d="M 330.5,343.5 C 331.167,343.5 331.833,343.5 332.5,343.5C 332.5,344.833 333.167,345.5 334.5,345.5C 334.833,345.5 335.167,345.5 335.5,345.5C 337.117,348.652 339.784,350.318 343.5,350.5C 344.167,350.5 344.833,350.5 345.5,350.5C 345.5,351.5 345.5,352.5 345.5,353.5C 346.959,353.433 348.292,353.766 349.5,354.5C 351.167,355.833 352.833,357.167 354.5,358.5C 331.498,358.333 308.498,358.5 285.5,359C 286.737,359.232 287.737,359.732 288.5,360.5C 283.426,359.031 278.426,357.364 273.5,355.5C 270.891,353.518 268.225,351.518 265.5,349.5C 266.583,349.539 267.583,349.873 268.5,350.5C 290.465,349.844 312.465,349.177 334.5,348.5C 333.68,346.889 332.346,346.222 330.5,346.5C 330.5,345.5 330.5,344.5 330.5,343.5 Z"/></g>
<g><path style="opacity:0.565" fill="#fde597" d="M 345.5,350.5 C 348.374,351.097 350.708,352.431 352.5,354.5C 351.5,354.5 350.5,354.5 349.5,354.5C 348.292,353.766 346.959,353.433 345.5,353.5C 345.5,352.5 345.5,351.5 345.5,350.5 Z"/></g>
<g><path style="opacity:0.997" fill="#f5be0f" d="M 354.5,358.5 C 358.987,360.796 363.653,362.796 368.5,364.5C 346.67,365.332 324.67,365.832 302.5,366C 304.474,367.92 306.474,369.753 308.5,371.5C 304.226,369.363 299.892,367.196 295.5,365C 294.207,364.51 292.873,364.343 291.5,364.5C 291.167,364.5 290.833,364.5 290.5,364.5C 290.267,362.938 289.6,361.605 288.5,360.5C 287.737,359.732 286.737,359.232 285.5,359C 308.498,358.5 331.498,358.333 354.5,358.5 Z"/></g>
<g><path style="opacity:0.416" fill="#fce294" d="M 353.5,354.5 C 358.753,355.793 363.419,358.126 367.5,361.5C 361.877,360.831 357.211,358.498 353.5,354.5 Z"/></g>
<g><path style="opacity:0.11" fill="#fce290" d="M 273.5,355.5 C 278.426,357.364 283.426,359.031 288.5,360.5C 289.6,361.605 290.267,362.938 290.5,364.5C 285.642,363.074 280.976,361.074 276.5,358.5C 275.007,357.859 274.007,356.859 273.5,355.5 Z"/></g>
<g><path style="opacity:0.935" fill="#f7ca44" d="M 349.5,354.5 C 350.5,354.5 351.5,354.5 352.5,354.5C 352.833,354.5 353.167,354.5 353.5,354.5C 357.211,358.498 361.877,360.831 367.5,361.5C 367.833,361.5 368.167,361.5 368.5,361.5C 368.5,362.833 369.167,363.5 370.5,363.5C 373.577,363.179 375.91,364.179 377.5,366.5C 377.44,367.043 377.107,367.376 376.5,367.5C 374.124,365.756 371.457,364.756 368.5,364.5C 363.653,362.796 358.987,360.796 354.5,358.5C 352.833,357.167 351.167,355.833 349.5,354.5 Z"/></g>
<g><path style="opacity:0.21" fill="#fcedc1" d="M 368.5,361.5 C 369.833,361.5 370.5,362.167 370.5,363.5C 370.5,362.167 369.833,361.5 368.5,361.5 Z"/></g>
<g><path style="opacity:1" fill="#efab14" d="M 199.5,339.5 C 199.833,339.5 200.167,339.5 200.5,339.5C 200.5,341.5 200.5,343.5 200.5,345.5C 200.5,350.5 200.5,355.5 200.5,360.5C 210.833,360.5 221.167,360.5 231.5,360.5C 231.198,363.059 231.532,365.393 232.5,367.5C 232.5,372.5 232.5,377.5 232.5,382.5C 231.539,380.735 231.205,378.735 231.5,376.5C 221.167,376.5 210.833,376.5 200.5,376.5C 200.5,380.167 200.5,383.833 200.5,387.5C 200.167,387.5 199.833,387.5 199.5,387.5C 199.5,373.5 199.5,359.5 199.5,345.5C 199.5,343.5 199.5,341.5 199.5,339.5 Z"/></g>
<g><path style="opacity:0.999" fill="#f4b80e" d="M 368.5,364.5 C 371.457,364.756 374.124,365.756 376.5,367.5C 377.107,367.376 377.44,367.043 377.5,366.5C 377.833,366.5 378.167,366.5 378.5,366.5C 378.5,367.5 378.5,368.5 378.5,369.5C 380.484,369.383 382.15,370.05 383.5,371.5C 384.183,371.137 384.85,370.804 385.5,370.5C 385.833,370.5 386.167,370.5 386.5,370.5C 386.5,371.5 386.5,372.5 386.5,373.5C 362.93,373.222 339.596,373.555 316.5,374.5C 314.124,372.756 311.457,371.756 308.5,371.5C 306.474,369.753 304.474,367.92 302.5,366C 324.67,365.832 346.67,365.332 368.5,364.5 Z"/></g>
<g><path style="opacity:0.296" fill="#fce6ab" d="M 291.5,364.5 C 292.873,364.343 294.207,364.51 295.5,365C 299.892,367.196 304.226,369.363 308.5,371.5C 308.5,372.167 308.5,372.833 308.5,373.5C 303.642,372.074 298.976,370.074 294.5,367.5C 293.007,366.859 292.007,365.859 291.5,364.5 Z"/></g>
<g><path style="opacity:0.416" fill="#fad578" d="M 378.5,366.5 C 381.374,367.097 383.708,368.431 385.5,370.5C 384.85,370.804 384.183,371.137 383.5,371.5C 382.15,370.05 380.484,369.383 378.5,369.5C 378.5,368.5 378.5,367.5 378.5,366.5 Z"/></g>
<g><path style="opacity:0.376" fill="#fbe2a4" d="M 386.5,370.5 C 389.681,371.334 392.848,372.334 396,373.5C 397.749,374.41 398.916,375.743 399.5,377.5C 395.257,375.879 390.924,374.546 386.5,373.5C 386.5,372.5 386.5,371.5 386.5,370.5 Z"/></g>
<g><path style="opacity:0.997" fill="#f2b317" d="M 308.5,371.5 C 311.457,371.756 314.124,372.756 316.5,374.5C 339.596,373.555 362.93,373.222 386.5,373.5C 390.924,374.546 395.257,375.879 399.5,377.5C 399.833,377.5 400.167,377.5 400.5,377.5C 400.5,378.5 400.5,379.5 400.5,380.5C 402.698,380.12 404.365,380.787 405.5,382.5C 405.631,383.239 405.464,383.906 405,384.5C 383.24,383.34 361.406,383.173 339.5,384C 340.056,384.383 340.389,384.883 340.5,385.5C 336.959,384.241 333.292,383.241 329.5,382.5C 326.284,382.655 323.617,381.655 321.5,379.5C 321.5,378.5 321.5,377.5 321.5,376.5C 319.194,376.007 316.861,375.674 314.5,375.5C 314.167,375.5 313.833,375.5 313.5,375.5C 312.817,373.824 311.483,373.157 309.5,373.5C 309.167,373.5 308.833,373.5 308.5,373.5C 308.5,372.833 308.5,372.167 308.5,371.5 Z"/></g>
<g><path style="opacity:0.212" fill="#fce7b7" d="M 309.5,373.5 C 311.483,373.157 312.817,373.824 313.5,375.5C 311.517,375.843 310.183,375.176 309.5,373.5 Z"/></g>
<g><path style="opacity:0.188" fill="#f7d070" d="M 314.5,375.5 C 316.861,375.674 319.194,376.007 321.5,376.5C 321.5,377.5 321.5,378.5 321.5,379.5C 318.626,378.903 316.292,377.569 314.5,375.5 Z"/></g>
<g><path style="opacity:1" fill="#eda512" d="M 232.5,382.5 C 232.5,388.167 232.5,393.833 232.5,399.5C 231.523,396.713 231.19,393.713 231.5,390.5C 221.167,390.5 210.833,390.5 200.5,390.5C 200.5,389.5 200.5,388.5 200.5,387.5C 200.5,383.833 200.5,380.167 200.5,376.5C 210.833,376.5 221.167,376.5 231.5,376.5C 231.205,378.735 231.539,380.735 232.5,382.5 Z"/></g>
<g><path style="opacity:0.299" fill="#efb549" d="M 235.5,359.5 C 235.5,384.167 235.5,408.833 235.5,433.5C 234.5,433.5 233.5,433.5 232.5,433.5C 232.5,430.833 232.5,428.167 232.5,425.5C 232.5,416.833 232.5,408.167 232.5,399.5C 232.5,393.833 232.5,388.167 232.5,382.5C 232.5,377.5 232.5,372.5 232.5,367.5C 232.5,366.167 232.5,364.833 232.5,363.5C 233.302,362.048 233.802,360.382 234,358.5C 234.383,359.056 234.883,359.389 235.5,359.5 Z"/></g>
<g><path style="opacity:0.998" fill="#f0ad13" d="M 405.5,382.5 C 407.544,383.508 409.544,384.508 411.5,385.5C 412.743,387.164 414.41,388.331 416.5,389C 393.833,389.333 371.167,389.667 348.5,390C 349.056,390.383 349.389,390.883 349.5,391.5C 345.671,390.581 342.671,388.581 340.5,385.5C 340.389,384.883 340.056,384.383 339.5,384C 361.406,383.173 383.24,383.34 405,384.5C 405.464,383.906 405.631,383.239 405.5,382.5 Z"/></g>
<g><path style="opacity:0.224" fill="#fdeed5" d="M 409.5,381.5 C 410.791,381.263 411.791,381.596 412.5,382.5C 411.053,383.885 410.053,383.552 409.5,381.5 Z"/></g>
<g><path style="opacity:0.376" fill="#f8cd75" d="M 400.5,377.5 C 403.901,378.036 406.901,379.369 409.5,381.5C 410.053,383.552 411.053,383.885 412.5,382.5C 413.71,382.932 414.71,383.599 415.5,384.5C 414.432,385.434 413.099,385.768 411.5,385.5C 409.544,384.508 407.544,383.508 405.5,382.5C 404.365,380.787 402.698,380.12 400.5,380.5C 400.5,379.5 400.5,378.5 400.5,377.5 Z"/></g>
<g><path style="opacity:0.333" fill="#f7d080" d="M 329.5,382.5 C 333.292,383.241 336.959,384.241 340.5,385.5C 342.671,388.581 345.671,390.581 349.5,391.5C 349.5,392.167 349.5,392.833 349.5,393.5C 342.14,390.949 335.474,387.282 329.5,382.5 Z"/></g>
<g><path style="opacity:0.996" fill="#efaa1c" d="M 415.5,384.5 C 415.833,384.5 416.167,384.5 416.5,384.5C 416.5,385.5 416.5,386.5 416.5,387.5C 420.782,390.083 425.449,391.75 430.5,392.5C 430.833,392.5 431.167,392.5 431.5,392.5C 432.755,399 433.421,405.666 433.5,412.5C 433.5,418.676 433.166,424.676 432.5,430.5C 432.5,421.5 432.5,412.5 432.5,403.5C 432.5,400.833 432.5,398.167 432.5,395.5C 430.549,395.773 429.049,395.107 428,393.5C 405.239,394.328 382.406,394.828 359.5,395C 365.482,396.538 370.148,399.038 373.5,402.5C 371.334,402.421 369.334,401.754 367.5,400.5C 366.584,400.543 365.917,400.876 365.5,401.5C 365.167,401.5 364.833,401.5 364.5,401.5C 364.5,400.5 364.5,399.5 364.5,398.5C 360.063,396.285 355.396,394.619 350.5,393.5C 350.167,393.5 349.833,393.5 349.5,393.5C 349.5,392.833 349.5,392.167 349.5,391.5C 349.389,390.883 349.056,390.383 348.5,390C 371.167,389.667 393.833,389.333 416.5,389C 414.41,388.331 412.743,387.164 411.5,385.5C 413.099,385.768 414.432,385.434 415.5,384.5 Z"/></g>
<g><path style="opacity:1" fill="#eb9f16" d="M 199.5,387.5 C 199.833,387.5 200.167,387.5 200.5,387.5C 200.5,388.5 200.5,389.5 200.5,390.5C 210.833,390.5 221.167,390.5 231.5,390.5C 231.19,393.713 231.523,396.713 232.5,399.5C 232.5,408.167 232.5,416.833 232.5,425.5C 231.512,420.36 231.179,415.026 231.5,409.5C 221.251,409.819 211.084,409.486 201,408.5C 200.5,416.827 200.334,425.16 200.5,433.5C 200.167,433.5 199.833,433.5 199.5,433.5C 199.5,418.167 199.5,402.833 199.5,387.5 Z"/></g>
<g><path style="opacity:0.392" fill="#f7cf7e" d="M 416.5,384.5 C 421.556,386.689 426.223,389.355 430.5,392.5C 425.449,391.75 420.782,390.083 416.5,387.5C 416.5,386.5 416.5,385.5 416.5,384.5 Z"/></g>
<g><path style="opacity:0.406" fill="#fbe0aa" d="M 350.5,393.5 C 355.396,394.619 360.063,396.285 364.5,398.5C 364.5,399.5 364.5,400.5 364.5,401.5C 359.444,399.311 354.777,396.645 350.5,393.5 Z"/></g>
<g><path style="opacity:1" fill="#eda512" d="M 432.5,403.5 C 414.497,403.333 396.497,403.5 378.5,404C 379.056,404.383 379.389,404.883 379.5,405.5C 377.03,405.346 375.03,404.346 373.5,402.5C 370.148,399.038 365.482,396.538 359.5,395C 382.406,394.828 405.239,394.328 428,393.5C 429.049,395.107 430.549,395.773 432.5,395.5C 432.5,398.167 432.5,400.833 432.5,403.5 Z"/></g>
<g><path style="opacity:0.436" fill="#f0b74d" d="M 197.5,340.5 C 198.167,342.167 198.833,343.833 199.5,345.5C 199.5,359.5 199.5,373.5 199.5,387.5C 199.5,402.833 199.5,418.167 199.5,433.5C 197.508,402.851 196.841,371.851 197.5,340.5 Z"/></g>
<g><path style="opacity:0.997" fill="#eb9f16" d="M 432.5,403.5 C 432.5,412.5 432.5,421.5 432.5,430.5C 430.784,430.371 429.117,430.038 427.5,429.5C 420.735,426.272 414.068,422.772 407.5,419C 405.934,418.235 404.601,418.402 403.5,419.5C 403.167,419.5 402.833,419.5 402.5,419.5C 402.598,416.752 401.598,416.086 399.5,417.5C 399.167,417.5 398.833,417.5 398.5,417.5C 396.822,413.126 393.489,411.126 388.5,411.5C 388.167,411.5 387.833,411.5 387.5,411.5C 386.853,407.843 384.853,406.843 381.5,408.5C 381.167,408.5 380.833,408.5 380.5,408.5C 380.737,407.209 380.404,406.209 379.5,405.5C 379.389,404.883 379.056,404.383 378.5,404C 396.497,403.5 414.497,403.333 432.5,403.5 Z"/></g>
<g><path style="opacity:0.173" fill="#f8daa9" d="M 373.5,402.5 C 375.03,404.346 377.03,405.346 379.5,405.5C 380.404,406.209 380.737,407.209 380.5,408.5C 375.083,406.957 370.083,404.623 365.5,401.5C 365.917,400.876 366.584,400.543 367.5,400.5C 369.334,401.754 371.334,402.421 373.5,402.5 Z"/></g>
<g><path style="opacity:0.95" fill="#ea9a14" d="M 232.5,425.5 C 232.5,428.167 232.5,430.833 232.5,433.5C 221.833,433.5 211.167,433.5 200.5,433.5C 200.334,425.16 200.5,416.827 201,408.5C 211.084,409.486 221.251,409.819 231.5,409.5C 231.179,415.026 231.512,420.36 232.5,425.5 Z"/></g>
<g><path style="opacity:0.651" fill="#f3c069" d="M 387.5,411.5 C 384.895,411.379 382.895,410.379 381.5,408.5C 384.853,406.843 386.853,407.843 387.5,411.5 Z"/></g>
<g><path style="opacity:0.427" fill="#efb652" d="M 431.5,392.5 C 432.583,392.539 433.583,392.873 434.5,393.5C 435.499,406.817 435.833,420.15 435.5,433.5C 433.833,433.5 432.167,433.5 430.5,433.5C 430.5,432.167 429.833,431.5 428.5,431.5C 428.167,431.5 427.833,431.5 427.5,431.5C 427.5,430.833 427.5,430.167 427.5,429.5C 429.117,430.038 430.784,430.371 432.5,430.5C 433.166,424.676 433.5,418.676 433.5,412.5C 433.421,405.666 432.755,399 431.5,392.5 Z"/></g>
<g><path style="opacity:0.239" fill="#f4c472" d="M 388.5,411.5 C 393.489,411.126 396.822,413.126 398.5,417.5C 394.709,416.079 391.376,414.079 388.5,411.5 Z"/></g>
<g><path style="opacity:0.035" fill="#fad094" d="M 402.5,419.5 C 400.821,419.715 399.821,419.048 399.5,417.5C 401.598,416.086 402.598,416.752 402.5,419.5 Z"/></g>
<g><path style="opacity:0.114" fill="#f7d193" d="M 427.5,429.5 C 427.5,430.167 427.5,430.833 427.5,431.5C 418.942,428.554 410.942,424.554 403.5,419.5C 404.601,418.402 405.934,418.235 407.5,419C 414.068,422.772 420.735,426.272 427.5,429.5 Z"/></g>
<g><path style="opacity:0.102" fill="#fff6e2" d="M 428.5,431.5 C 429.833,431.5 430.5,432.167 430.5,433.5C 429.167,433.5 428.5,432.833 428.5,431.5 Z"/></g>
</svg>
